<ttFont>
          <CharString index="0">
            hlineto
            -104 callsubr
            return
          </CharString>
          <CharString index="1">
            -109 -31 -34 -73 hvcurveto
            return
          </CharString>
          <CharString index="2">
            -82 callgsubr
            -160 vlineto
            -93 45 -5 callgsubr
            return
          </CharString>
          <CharString index="3">
            -15 -8 -85 callgsubr
            return
          </CharString>
          <CharString index="4">
            -71 callgsubr
            -100 callgsubr
            return
          </CharString>
          <CharString index="5">
            61 hlineto
            27 16 5 11 10 hvcurveto
            -94 -105 callgsubr
          </CharString>
          <CharString index="6">
            251 callgsubr
            -104 -77 callsubr
            67 vlineto
            30 6 6 30 vhcurveto
            return
          </CharString>
          <CharString index="7">
            rmoveto
            -107 callgsubr
            return
          </CharString>
          <CharString index="8">
            hlineto
            -91 callsubr
            return
          </CharString>
          <CharString index="9">
            -97 callsubr
            127 return
          </CharString>
          <CharString index="10">
            -87 callgsubr
            -92 callgsubr
            return
          </CharString>
          <CharString index="11">
            hlineto
            23 16 6 10 -81 callgsubr
          </CharString>
          <CharString index="12">
            23 callgsubr
            60 return
          </CharString>
          <CharString index="13">
            -88 callgsubr
            endchar
          </CharString>
          <CharString index="14">
            -100 callsubr
            124 -82 callsubr
            45 hlineto
            return
          </CharString>
          <CharString index="15">
            -19 -8 -5 -15 -76 callgsubr
            return
          </CharString>
          <CharString index="16">
            120 41 -18 callgsubr
            return
          </CharString>
          <CharString index="17">
            -68 callsubr
            64 5 callsubr
            82 hlineto
            return
          </CharString>
          <CharString index="18">
            -15 -10 -85 callgsubr
            return
          </CharString>
          <CharString index="19">
            135 callsubr
            202 -86 callsubr
            29 hlineto
            19 4 -9 -15 hvcurveto
            -167 170 167 -1 callsubr
            return
          </CharString>
          <CharString index="20">
            -51 callgsubr
            -151 -107 callsubr
            return
          </CharString>
          <CharString index="21">
            vlineto
            -79 callsubr
            return
          </CharString>
          <CharString index="22">
            hlineto
            30 6 -6 -30 hvcurveto
            -33 170 70 vlineto
            82 -50 30 -72 vhcurveto
            endchar
          </CharString>
          <CharString index="23">
            -19 -10 -72 callgsubr
            return
          </CharString>
          <CharString index="24">
            -15 -8 -5 -9 vhcurveto
            -13 -91 callgsubr
            return
          </CharString>
          <CharString index="25">
            vlineto
            -101 callgsubr
            return
          </CharString>
          <CharString index="26">
            vlineto
            -98 callgsubr
          </CharString>
          <CharString index="27">
            -84 callsubr
            -36 -52 callsubr
            63 hlineto
            return
          </CharString>
          <CharString index="28">
            19 -103 callgsubr
            return
          </CharString>
          <CharString index="29">
            225 -90 callsubr
            return
          </CharString>
          <CharString index="30">
            -60 -77 callgsubr
            return
          </CharString>
          <CharString index="31">
            -7 callsubr
            -119 42 callsubr
            -42 170 26 vlineto
            15 8 5 15 64 callsubr
            return
          </CharString>
          <CharString index="32">
            232 callgsubr
            hlineto
            -68 callgsubr
            return
          </CharString>
          <CharString index="33">
            4 7 2 8 10 vvcurveto
            116 vlineto
            10 -2 8 -4 7 vhcurveto
            return
          </CharString>
          <CharString index="34">
            hlineto
            -76 callsubr
            return
          </CharString>
          <CharString index="35">
            -314 rmoveto
            -80 callsubr
            return
          </CharString>
          <CharString index="36">
            -8 -72 callgsubr
            return
          </CharString>
          <CharString index="37">
            rmoveto
            -78 97 78 hlineto
            -248 -72 callsubr
            return
          </CharString>
          <CharString index="38">
            -37 17 -15 30 -4 vhcurveto
            -27 callgsubr
            return
          </CharString>
          <CharString index="39">
            rmoveto
            -87 callsubr
            return
          </CharString>
          <CharString index="40">
            -53 vlineto
            -84 50 -23 73 vhcurveto
            41 93 -30 callgsubr
            40 -82 callsubr
            16 -74 callgsubr
            -219 vlineto
            104 callsubr
            -241 -107 callsubr
            97 108 callgsubr
            113 -33 -107 callsubr
            98 vlineto
            26 8 8 26 vhcurveto
            return
          </CharString>
          <CharString index="41">
            311 callgsubr
            113 vlineto
            26 5 5 26 vhcurveto
            37 -144 hlineto
            -84 callsubr
            return
          </CharString>
          <CharString index="42">
            -42 callgsubr
            -36 90 63 vlineto
            74 -41 32 -89 vhcurveto
            -53 hlineto
            -89 -41 -32 -74 hvcurveto
            return
          </CharString>
          <CharString index="43">
            hlineto
            17 8 -7 -15 hvcurveto
            return
          </CharString>
          <CharString index="44">
            -39 callsubr
            -357 hlineto
            103 callgsubr
            return
          </CharString>
          <CharString index="45">
            432 -70 callsubr
            return
          </CharString>
          <CharString index="46">
            225 -68 callsubr
            return
          </CharString>
          <CharString index="47">
            61 136 callgsubr
            return
          </CharString>
          <CharString index="48">
            vlineto
            -69 callsubr
            return
          </CharString>
          <CharString index="49">
            -26 -9 -8 -25 vhcurveto
            -19 return
          </CharString>
          <CharString index="50">
            hlineto
            -50 callgsubr
            return
          </CharString>
          <CharString index="51">
            -88 callsubr
            47 42 callgsubr
            hlineto
            endchar
          </CharString>
          <CharString index="52">
            -106 callsubr
            -160 -78 callgsubr
            return
          </CharString>
          <CharString index="53">
            vlineto
            15 8 7 17 vhcurveto
            return
          </CharString>
          <CharString index="54">
            -57 -63 vlineto
            -46 callgsubr
            return
          </CharString>
          <CharString index="55">
            -97 callgsubr
            84 -82 callsubr
            return
          </CharString>
          <CharString index="56">
            hlineto
            -55 callsubr
            return
          </CharString>
          <CharString index="57">
            rmoveto
            -12 callgsubr
            18 9 -9 -21 hvcurveto
            -189 229 callgsubr
            return
          </CharString>
          <CharString index="58">
            25 -32 27 -34 10 -12 52 -63 rcurveline
            -91 -107 callsubr
            return
          </CharString>
          <CharString index="59">
            -102 callgsubr
            114 return
          </CharString>
          <CharString index="60">
            -106 callsubr
            -56 vlineto
            -87 callgsubr
            69 -74 callgsubr
            -59 67 callgsubr
            -227 170 62 92 -84 callgsubr
            return
          </CharString>
          <CharString index="61">
            0 vhcurveto
            0 -45 53 -24 callsubr
            return
          </CharString>
          <CharString index="62">
            -46 callsubr
            -160 vlineto
            -93 45 -5 callgsubr
            return
          </CharString>
          <CharString index="63">
            112 -170 -102 -23 callsubr
            198 -33 callsubr
            return
          </CharString>
          <CharString index="64">
            -35 callsubr
            107 callsubr
            return
          </CharString>
          <CharString index="65">
            4 7 2 8 10 vvcurveto
            134 46 callgsubr
            -86 159 callgsubr
            -112 vlineto
            -22 6 -17 13 -12 vhcurveto
            -45 -11 -27 -35 -60 vvcurveto
            -141 vlineto
            -75 42 -35 65 vhcurveto
            131 hlineto
            27 16 5 11 10 hvcurveto
            -78 170 257 -170 -58 146 callgsubr
            -71 -97 callgsubr
            87 -33 callsubr
            return
          </CharString>
          <CharString index="66">
            470 rmoveto
            -65 -7 -35 -28 -70 vvcurveto
            -67 callsubr
            161 hlineto
            return
          </CharString>
          <CharString index="67">
            hlineto
            -106 callsubr
            -258 -10 callgsubr
            return
          </CharString>
          <CharString index="68">
            -25 callgsubr
            -170 return
          </CharString>
          <CharString index="69">
            -54 callgsubr
            206 269 callgsubr
            3 callsubr
          </CharString>
          <CharString index="70">
            105 38 32 83 hvcurveto
            159 vlineto
            10 -2 8 -4 7 vhcurveto
            return
          </CharString>
          <CharString index="71">
            -16 callgsubr
            374 231 callsubr
            -251 244 callgsubr
            return
          </CharString>
          <CharString index="72">
            -274 -100 hlineto
            21 7 12 15 31 vvcurveto
            109 36 callgsubr
            -122 42 callsubr
            -72 170 56 -82 callsubr
            16 -74 callgsubr
            -71 vlineto
            104 callsubr
            -33 -113 33 146 callsubr
            -71 -79 callgsubr
            -16 -91 callgsubr
            66 -170 -82 79 callsubr
            60 67 -255 23 callgsubr
            return
          </CharString>
          <CharString index="73">
            -15 -8 -7 -17 vhcurveto
            return
          </CharString>
          <CharString index="74">
            vlineto
            19 10 -83 callgsubr
            return
          </CharString>
          <CharString index="75">
            -107 callsubr
            51 vlineto
            -13 callgsubr
            return
          </CharString>
          <CharString index="76">
            rmoveto
            122 129 -122 hlineto
            return
          </CharString>
          <CharString index="77">
            rmoveto
            51 231 49 -231 rlineto
            47 -220 rmoveto
            176 hlineto
            -165 642 rlineto
            -213 hlineto
            -165 -642 rlineto
            172 hlineto
            21 96 rlineto
            154 hlineto
            endchar
          </CharString>
          <CharString index="78">
            rmoveto
            -344 vlineto
            93 callgsubr
            352 -170 -375 71 callsubr
            167 313 callsubr
          </CharString>
          <CharString index="79">
            -62 callgsubr
            -83 2 callgsubr
            return
          </CharString>
          <CharString index="80">
            -30 -4 -17 -15 -37 vvcurveto
            return
          </CharString>
          <CharString index="81">
            92 vlineto
            73 -31 34 -109 vhcurveto
            -63 -91 callgsubr
            23 -82 callsubr
            return
          </CharString>
          <CharString index="82">
            237 callsubr
            -359 -94 callsubr
          </CharString>
          <CharString index="83">
            -34 43 vhcurveto
            -41 51 rlineto
            10 callgsubr
            return
          </CharString>
          <CharString index="84">
            vlineto
            -107 callgsubr
            return
          </CharString>
          <CharString index="85">
            vlineto
            75 -40 49 -107 vhcurveto
            return
          </CharString>
          <CharString index="86">
            -97 -98 -28 callgsubr
            return
          </CharString>
          <CharString index="87">
            hlineto
            107 40 49 75 hvcurveto
            return
          </CharString>
          <CharString index="88">
            -73 31 -34 109 vhcurveto
            -38 callsubr
          </CharString>
          <CharString index="89">
            -104 callsubr
            118 vlineto
            71 -9 50 0 vhcurveto
            0 15 -52 34 -57 vhcurveto
            return
          </CharString>
          <CharString index="90">
            120 vhcurveto
            return
          </CharString>
          <CharString index="91">
            -71 callgsubr
            -32 callgsubr
          </CharString>
          <CharString index="92">
            -61 callsubr
            117 -66 callgsubr
            36 0 callsubr
            -618 -314 73 callgsubr
            return
          </CharString>
          <CharString index="93">
            -45 callgsubr
            314 75 vlineto
            return
          </CharString>
          <CharString index="94">
            -314 -100 callsubr
            return
          </CharString>
          <CharString index="95">
            -58 callsubr
            109 return
          </CharString>
          <CharString index="96">
            hlineto
            -25 -9 8 26 hvcurveto
            83 80 vlineto
            -37 callsubr
            return
          </CharString>
          <CharString index="97">
            rmoveto
            -495 102 callsubr
            -42 -58 callgsubr
            495 -175 -518 -38 callgsubr
            148 183 callsubr
            vlineto
            endchar
          </CharString>
          <CharString index="98">
            21 callgsubr
            45 -5 callgsubr
            return
          </CharString>
          <CharString index="99">
            rmoveto
            80 hlineto
            -37 callsubr
            252 113 -699 181 callgsubr
            651 500 118 callsubr
            -191 hlineto
            -92 callsubr
            134 -82 callsubr
            10 103 -63 143 callgsubr
            -69 callgsubr
            80 -170 -64 -86 callgsubr
            110 43 vlineto
            -20 callgsubr
            217 -5 rmoveto
            -642 126 callsubr
          </CharString>
          <CharString index="100">
            73 -31 44 -109 vhcurveto
            return
          </CharString>
          <CharString index="101">
            -7 callsubr
            28 callgsubr
            return
          </CharString>
          <CharString index="102">
            rmoveto
            -34 callsubr
            return
          </CharString>
          <CharString index="103">
            vlineto
            -73 31 -34 109 vhcurveto
            -56 callsubr
          </CharString>
          <CharString index="104">
            rmoveto
            116 -22 callsubr
            -141 hlineto
            -7 callgsubr
            141 -20 callsubr
            112 -175 -99 102 callsubr
            -35 98 callgsubr
            35 -64 callsubr
            -103 vlineto
            endchar
          </CharString>
          <CharString index="105">
            rmoveto
            184 callsubr
            -157 hlineto
            -53 -69 -53 69 280 callgsubr
            133 -150 rlineto
            return
          </CharString>
          <CharString index="106">
            vlineto
            15 4 9 19 vhcurveto
            return
          </CharString>
          <CharString index="107">
            -43 callgsubr
            82 hlineto
            return
          </CharString>
          <CharString index="108">
            vlineto
            -16 callsubr
          </CharString>
          <CharString index="109">
            230 113 rmoveto
            return
          </CharString>
          <CharString index="110">
            -359 152 callsubr
          </CharString>
          <CharString index="111">
            -107 -40 -49 -75 hvcurveto
            return
          </CharString>
          <CharString index="112">
            -66 callgsubr
            89 -43 callgsubr
            return
          </CharString>
          <CharString index="113">
            17 hlineto
            76 25 31 59 hvcurveto
            60 -135 -31 vlineto
            -14 -6 -7 -12 vhcurveto
            -21 -43 52 -58 hhcurveto
            -19 hlineto
            -75 -24 -36 -59 hvcurveto
            -55 135 return
          </CharString>
          <CharString index="114">
            -314 hlineto
            104 callsubr
            return
          </CharString>
          <CharString index="115">
            -10 callgsubr
            50 -252 hlineto
            -97 callsubr
            return
          </CharString>
          <CharString index="116">
            249 callgsubr
            175 217 callgsubr
            -159 316 callsubr
            344 231 callsubr
            -221 244 callgsubr
            -71 102 callsubr
            -191 -120 239 -20 callsubr
            504 vlineto
            endchar
          </CharString>
          <CharString index="117">
            60 callsubr
            375 vlineto
            75 -38 49 -95 vhcurveto
            endchar
          </CharString>
          <CharString index="118">
            215 -93 callsubr
            460 283 rmoveto
            return
          </CharString>
          <CharString index="119">
            hlineto
            6 callgsubr
            return
          </CharString>
          <CharString index="120">
            -41 callsubr
            322 hmoveto
            113 return
          </CharString>
          <CharString index="121">
            -100 callsubr
            314 68 vlineto
            return
          </CharString>
          <CharString index="122">
            rmoveto
            13 5 6 15 vhcurveto
            38 hlineto
            15 5 -6 -13 hvcurveto
            -14 vlineto
            -13 -5 -6 -15 vhcurveto
            -38 hlineto
            -15 -5 6 13 hvcurveto
            82 -90 rmoveto
            77 25 35 54 hvcurveto
            16 vlineto
            54 -25 36 -77 vhcurveto
            -86 hlineto
            -77 -25 -36 -54 hvcurveto
            -16 vlineto
            -54 25 -35 77 vhcurveto
            return
          </CharString>
          <CharString index="123">
            -314 vlineto
            -39 callgsubr
            return
          </CharString>
          <CharString index="124">
            305 callgsubr
            37 callsubr
            return
          </CharString>
          <CharString index="125">
            rmoveto
            -75 callgsubr
            60 return
          </CharString>
          <CharString index="126">
            -100 callsubr
            198 148 callsubr
            return
          </CharString>
          <CharString index="127">
            324 callgsubr
            60 hlineto
            endchar
          </CharString>
          <CharString index="128">
            5 callgsubr
            206 -82 callsubr
            return
          </CharString>
          <CharString index="129">
            -107 -40 85 callgsubr
            40 -49 107 vhcurveto
            107 -20 callsubr
            69 -164 -46 102 callsubr
            -17 hlineto
            -12 callgsubr
            17 8 -7 -15 hvcurveto
            -46 return
          </CharString>
          <CharString index="130">
            vlineto
            1 callgsubr
          </CharString>
          <CharString index="131">
            hhcurveto
            61 283 callgsubr
          </CharString>
          <CharString index="132">
            29 callgsubr
            -131 vlineto
            -36 callgsubr
            return
          </CharString>
          <CharString index="133">
            -55 callgsubr
            294 75 vlineto
            return
          </CharString>
          <CharString index="134">
            -51 callgsubr
            -164 -107 callsubr
            56 13 vlineto
            160 callgsubr
            153 vlineto
            74 -41 32 -89 vhcurveto
            -53 hlineto
            -89 -41 -32 -74 hvcurveto
            -63 90 36 -42 callgsubr
            -110 -79 callgsubr
            -214 315 callsubr
            95 vlineto
            10 -2 8 -4 7 vhcurveto
            55 113 -502 307 callgsubr
            hlineto
            -62 callgsubr
            -77 -17 callgsubr
            88 116 callsubr
            148 301 -66 vlineto
            -36 callgsubr
            return
          </CharString>
          <CharString index="135">
            rmoveto
            53 -69 306 callsubr
            -133 150 rlineto
            -154 hlineto
            -133 -150 306 callsubr
            return
          </CharString>
          <CharString index="136">
            66 callsubr
            91 vlineto
            73 -31 34 -109 vhcurveto
            -69 82 callsubr
            return
          </CharString>
          <CharString index="137">
            -9 callsubr
            61 hlineto
            27 return
          </CharString>
          <CharString index="138">
            139 hlineto
            58 104 56 -104 270 callgsubr
            return
          </CharString>
          <CharString index="139">
            95 callsubr
            hlineto
            return
          </CharString>
          <CharString index="140">
            rmoveto
            -65 -7 -35 -28 -70 vvcurveto
            -67 callsubr
            161 hlineto
            322 hmoveto
            113 -741 -113 60 vlineto
            25 callsubr
            305 210 callsubr
            238 vlineto
            71 -35 27 -67 7 vhcurveto
            59 vlineto
            endchar
          </CharString>
          <CharString index="141">
            vlineto
            -330 -332 rlineto
            160 hlineto
            170 172 rlineto
            164 callgsubr
          </CharString>
          <CharString index="142">
            272 113 -248 hlineto
            -25 -9 8 26 hvcurveto
            return
          </CharString>
          <CharString index="143">
            vlineto
            93 -45 34 -86 vhcurveto
            return
          </CharString>
          <CharString index="144">
            -59 vlineto
            -74 callsubr
            return
          </CharString>
          <CharString index="145">
            176 callgsubr
            75 -61 callgsubr
            return
          </CharString>
          <CharString index="146">
            -54 callsubr
            17 hlineto
            return
          </CharString>
          <CharString index="147">
            hlineto
            19 callgsubr
            264 callgsubr
            135 callsubr
            162 114 callgsubr
            return
          </CharString>
          <CharString index="148">
            -79 callgsubr
            -11 return
          </CharString>
          <CharString index="149">
            hlineto
            133 callsubr
            return
          </CharString>
          <CharString index="150">
            rmoveto
            130 -150 rlineto
            166 hlineto
            -130 150 rlineto
            return
          </CharString>
          <CharString index="151">
            -314 vlineto
            104 callsubr
            return
          </CharString>
          <CharString index="152">
            -37 callgsubr
            -64 hlineto
            return
          </CharString>
          <CharString index="153">
            -113 60 -422 hlineto
            -87 callgsubr
            152 -84 callgsubr
            116 -170 -100 vlineto
            -15 -8 -5 -9 vhcurveto
            -52 -91 callgsubr
            406 92 -128 -79 callgsubr
            -31 -113 84 -84 callgsubr
            154 60 vlineto
            endchar
          </CharString>
          <CharString index="154">
            vlineto
            82 callgsubr
            return
          </CharString>
          <CharString index="155">
            181 125 -181 131 210 125 -385 -642 394 125 return
          </CharString>
          <CharString index="156">
            22 callgsubr
            93 157 rlineto
            -97 170 return
          </CharString>
          <CharString index="157">
            rmoveto
            260 callsubr
            -40 -15 vlineto
            -50 callgsubr
            113 546 vlineto
            -768 -338 7 callgsubr
            969 451 rmoveto
            -1251 -1 callgsubr
            295 -86 callsubr
            45 -114 68 callgsubr
          </CharString>
          <CharString index="158">
            1 296 400 rmoveto
            139 callsubr
            97 44 callgsubr
            -352 vmoveto
            139 callsubr
            106 44 callgsubr
            167 267 rmoveto
            75 -40 49 -107 vhcurveto
            -134 115 callgsubr
            -78 vlineto
            -52 9 -40 38 -21 vhcurveto
            -38 -17 -9 -35 -51 vvcurveto
            -100 297 callsubr
            100 vlineto
            51 -9 35 -39 17 vhcurveto
            39 21 9 40 52 vvcurveto
            endchar
          </CharString>
          <CharString index="159">
            233 51 callgsubr
            465 194 rmoveto
            113 -770 -113 444 -58 vlineto
            -34 -4 -19 -17 -3 -25 rrcurveto
            204 callgsubr
            return
          </CharString>
          <CharString index="160">
            -74 callgsubr
            -14 2 callgsubr
            -120 hlineto
            -36 callgsubr
            238 callgsubr
            return
          </CharString>
          <CharString index="161">
            rmoveto
            172 callsubr
            -22 callgsubr
            -140 vlineto
            22 callgsubr
            122 206 rlineto
            65 -81 vlineto
            -104 callsubr
            -666 407 rmoveto
            307 callgsubr
            vlineto
            140 callgsubr
            323 308 callgsubr
          </CharString>
          <CharString index="162">
            rmoveto
            -230 -202 -78 90 -73 callsubr
            -74 return
          </CharString>
          <CharString index="163">
            -299 rmoveto
            52 hlineto
            115 166 rlineto
            87 -167 vlineto
            return
          </CharString>
          <CharString index="164">
            rmoveto
            77 callsubr
            196 hlineto
            226 callsubr
            vlineto
            endchar
          </CharString>
          <CharString index="165">
            -20 callsubr
            394 -22 callsubr
            endchar
          </CharString>
          <CharString index="166">
            63 callsubr
            -130 vlineto
            -92 callsubr
            return
          </CharString>
          <CharString index="167">
            170 344 vlineto
            21 9 9 18 102 callgsubr
            -352 170 return
          </CharString>
          <CharString index="168">
            hlineto
            -69 callsubr
            return
          </CharString>
          <CharString index="169">
            rmoveto
            17 8 -7 -15 hvcurveto
            -126 102 callsubr
            -69 170 hlineto
            113 -517 rmoveto
            188 hlineto
            -118 235 rlineto
            62 16 24 42 59 vvcurveto
            166 -22 callsubr
            -297 274 callsubr
            228 11 hlineto
            endchar
          </CharString>
          <CharString index="170">
            -96 hlineto
            19 callgsubr
            return
          </CharString>
          <CharString index="171">
            vhcurveto
            13 -74 callgsubr
            return
          </CharString>
          <CharString index="172">
            -56 21 -34 45 -12 vhcurveto
            -100 313 callgsubr
            93 157 rlineto
            -97 170 291 -170 -56 149 callgsubr
            100 20 callsubr
          </CharString>
          <CharString index="173">
            293 callgsubr
            vlineto
            -47 callsubr
            return
          </CharString>
          <CharString index="174">
            102 -73 callsubr
            -86 -312 101 47 113 -497 -113 280 -101 -80 211 callgsubr
            -116 193 callsubr
            110 74 -110 -102 callgsubr
            110 74 -110 vlineto
            -93 return
          </CharString>
          <CharString index="175">
            -61 callgsubr
            -130 -198 hlineto
            return
          </CharString>
          <CharString index="176">
            79 callgsubr
            38 131 callgsubr
            return
          </CharString>
          <CharString index="177">
            -96 hlineto
            27 callgsubr
            return
          </CharString>
          <CharString index="178">
            138 callsubr
            52 30 24 40 9 hvcurveto
            -64 return
          </CharString>
          <CharString index="179">
            -51 callgsubr
            -164 -107 callsubr
            75 -61 callgsubr
            -458 hlineto
            -106 callsubr
            -91 -102 callgsubr
            85 60 -85 vlineto
            -36 callgsubr
            214 hlineto
            return
          </CharString>
          <CharString index="180">
            -113 60 -324 hlineto
            -103 callsubr
            324 return
          </CharString>
          <CharString index="181">
            -678 75 callsubr
          </CharString>
          <CharString index="182">
            -52 callgsubr
            endchar
          </CharString>
          <CharString index="183">
            302 callgsubr
            -192 hlineto
            211 callsubr
            218 callsubr
            return
          </CharString>
          <CharString index="184">
            80 callgsubr
            -140 199 callgsubr
            return
          </CharString>
          <CharString index="185">
            -96 hlineto
            -73 callgsubr
            return
          </CharString>
          <CharString index="186">
            vlineto
            -73 31 -44 179 callsubr
            44 73 hvcurveto
            return
          </CharString>
          <CharString index="187">
            -550 83 callsubr
          </CharString>
          <CharString index="188">
            -314 hlineto
            -82 callgsubr
            return
          </CharString>
          <CharString index="189">
            -91 callgsubr
            24 -82 callsubr
            return
          </CharString>
          <CharString index="190">
            -48 callgsubr
            endchar
          </CharString>
          <CharString index="191">
            rmoveto
            -107 -40 85 callgsubr
            40 -49 107 vhcurveto
            return
          </CharString>
          <CharString index="192">
            -3 294 220 callsubr
            -37 -58 callgsubr
            118 62 vlineto
            17 8 -7 -15 hvcurveto
            -87 142 rmoveto
            110 57 callgsubr
            -49 170 72 296 callgsubr
            -394 vlineto
            -75 40 -49 107 vhcurveto
            133 -20 callsubr
            137 -22 callsubr
            endchar
          </CharString>
          <CharString index="193">
            48 231 529 rmoveto
            109 -58 hlineto
            -43 9 -31 0 vhcurveto
            0 -13 33 -36 34 vhcurveto
            -95 -50 rmoveto
            157 callgsubr
            79 -73 rlineto
            -96 -107 callsubr
            return
          </CharString>
          <CharString index="194">
            47 -32 -31 20 -66 hhcurveto
            -104 -113 15 hlineto
            35 15 -10 -37 25 hvcurveto
            52 -76 -130 -231 rlineto
            195 hlineto
            102 181 rlineto
            return
          </CharString>
          <CharString index="195">
            -68 callsubr
            16 -66 callgsubr
            20 vlineto
            73 -26 44 -109 vhcurveto
            return
          </CharString>
          <CharString index="196">
            vlineto
            15 callgsubr
            return
          </CharString>
          <CharString index="197">
            -113 257 -57 -63 vlineto
            -109 -31 -34 -73 hvcurveto
            -55 vlineto
            -73 31 -34 109 vhcurveto
            127 callgsubr
            return
          </CharString>
          <CharString index="198">
            -1 callgsubr
            335 -86 callsubr
            return
          </CharString>
          <CharString index="199">
            104 callsubr
            -22 -107 callsubr
            return
          </CharString>
          <CharString index="200">
            -126 -54 -32 -83 hvcurveto
            return
          </CharString>
          <CharString index="201">
            -154 hlineto
            26 -63 21 -50 12 -30 25 -44 rlinecurve
            -5 hlineto
            -30 46 -25 33 -40 52 -43 56 rcurveline
            return
          </CharString>
          <CharString index="202">
            -113 60 -324 return
          </CharString>
          <CharString index="203">
            60 113 -780 -113 550 -57 -101 vlineto
            19 callgsubr
            -238 vlineto
            5 callgsubr
            202 114 callgsubr
            return
          </CharString>
          <CharString index="204">
            -58 callgsubr
            348 -54 callsubr
            return
          </CharString>
          <CharString index="205">
            -129 -31 callsubr
            return
          </CharString>
          <CharString index="206">
            -37 17 -15 30 -4 vhcurveto
            -5 vlineto
            40 callgsubr
            return
          </CharString>
          <CharString index="207">
            rmoveto
            -101 callgsubr
            16 -74 callgsubr
            -110 -79 callgsubr
            -16 -91 callgsubr
            return
          </CharString>
          <CharString index="208">
            -98 hlineto
            -106 callsubr
            return
          </CharString>
          <CharString index="209">
            vlineto
            -34 callsubr
            return
          </CharString>
          <CharString index="210">
            71 -20 642 rmoveto
            -113 608 113 vlineto
            -548 -170 rmoveto
            166 callgsubr
            140 113 -310 -180 -23 callsubr
            180 vlineto
            378 -156 rmoveto
            -392 -376 rlineto
            179 hlineto
            213 211 rlineto
            return
          </CharString>
          <CharString index="211">
            -19 -71 callsubr
            return
          </CharString>
          <CharString index="212">
            hhcurveto
            198 callgsubr
          </CharString>
          <CharString index="213">
            rmoveto
            184 callsubr
            -147 279 callsubr
            54 150 rmoveto
            -147 279 callsubr
            111 hlineto
            return
          </CharString>
          <CharString index="214">
            80 149 callsubr
            return
          </CharString>
          <CharString index="215">
            7 448 240 callgsubr
            76 113 -544 222 callgsubr
            -57 -93 211 callgsubr
            -50 vlineto
            -87 callgsubr
            93 -74 callgsubr
            -23 -79 callgsubr
            -52 133 callgsubr
            11 -170 -59 vlineto
            -45 17 -17 30 -4 vhcurveto
            -5 vlineto
            -30 -4 -17 -18 -38 vvcurveto
            return
          </CharString>
          <CharString index="216">
            -49 112 callsubr
          </CharString>
          <CharString index="217">
            -103 callsubr
            122 78 -327 -94 callsubr
          </CharString>
          <CharString index="218">
            -5 callsubr
            -27 -58 callgsubr
            return
          </CharString>
          <CharString index="219">
            vlineto
            -87 callgsubr
            127 callgsubr
            endchar
          </CharString>
          <CharString index="220">
            -9 callsubr
            118 hlineto
            42 26 7 17 21 hvcurveto
            -16 25 30 -8 63 hhcurveto
            return
          </CharString>
          <CharString index="221">
            -61 callsubr
            114 -66 callgsubr
            return
          </CharString>
          <CharString index="222">
            -49 -75 hvcurveto
            -251 vlineto
            return
          </CharString>
          <CharString index="223">
            -170 -365 hlineto
            -97 callsubr
            return
          </CharString>
          <CharString index="224">
            hlineto
            70 callgsubr
            return
          </CharString>
          <CharString index="225">
            rmoveto
            206 callsubr
            return
          </CharString>
          <CharString index="226">
            vlineto
            153 callsubr
            217 -5 rmoveto
            -642 126 callsubr
          </CharString>
          <CharString index="227">
            rmoveto
            107 callgsubr
            return
          </CharString>
          <CharString index="228">
            -98 211 callgsubr
            return
          </CharString>
          <CharString index="229">
            vlineto
            29 callgsubr
            return
          </CharString>
          <CharString index="230">
            rmoveto
            134 hlineto
            184 callsubr
            -170 hlineto
            return
          </CharString>
          <CharString index="231">
            293 callgsubr
            hlineto
            -47 callsubr
            73 vlineto
            8 -1 320 callgsubr
            70 hlineto
            -91 1 return
          </CharString>
          <CharString index="232">
            -100 callgsubr
            54 78 -82 34 callsubr
          </CharString>
          <CharString index="233">
            -95 callsubr
            113 vlineto
            endchar
          </CharString>
          <CharString index="234">
            -113 238 hlineto
            -62 callgsubr
            -68 vlineto
            104 callsubr
            -44 -113 44 146 callsubr
            -143 -79 callgsubr
            -22 133 callgsubr
            100 -170 -116 vlineto
            -73 31 -34 179 callsubr
            34 73 hvcurveto
            return
          </CharString>
          <CharString index="235">
            36 333 642 232 callsubr
            return
          </CharString>
          <CharString index="236">
            215 rmoveto
            -82 callgsubr
            return
          </CharString>
          <CharString index="237">
            363 rmoveto
            -70 hlineto
            -74 callsubr
            70 hlineto
            -234 263 callsubr
            return
          </CharString>
          <CharString index="238">
            34 -12 -29 20 -47 304 callsubr
            -251 71 callsubr
            167 return
          </CharString>
          <CharString index="239">
            107 callsubr
            endchar
          </CharString>
          <CharString index="240">
            -109 -31 -44 -73 hvcurveto
            return
          </CharString>
          <CharString index="241">
            30 6 6 30 vhcurveto
            40 113 -66 hlineto
            -81 -39 -38 -60 -32 3 -34 6 -50 hvcurveto
            -4 hlineto
            -9 30 -17 31 -20 30 -32 47 rcurveline
            return
          </CharString>
          <CharString index="242">
            103 113 -50 -91 callgsubr
            return
          </CharString>
          <CharString index="243">
            -21 -9 -9 -18 vhcurveto
            return
          </CharString>
          <CharString index="244">
            642 rmoveto
            -580 -113 580 hlineto
            -350 -57 rmoveto
            -170 -267 277 callgsubr
            112 113 -282 -257 -23 callsubr
            endchar
          </CharString>
          <CharString index="245">
            186 callgsubr
            18 hlineto
            return
          </CharString>
          <CharString index="246">
            -15 -8 -7 83 callgsubr
            return
          </CharString>
          <CharString index="247">
            -114 105 callgsubr
          </CharString>
          <CharString index="248">
            -57 -39 -23 -65 hvcurveto
            -20 -5 vlineto
            312 callsubr
            -358 79 callgsubr
            231 131 callgsubr
            113 -60 return
          </CharString>
          <CharString index="249">
            -78 callsubr
            -230 -117 rmoveto
            -15 -71 callsubr
            -125 -167 hlineto
            -51 callgsubr
            return
          </CharString>
          <CharString index="250">
            -57 -39 -23 -65 hvcurveto
            -20 -5 vlineto
            312 callsubr
            -165 196 callsubr
            return
          </CharString>
          <CharString index="251">
            rmoveto
            154 hlineto
            184 callsubr
            -157 hlineto
            -53 -69 -53 69 280 callgsubr
            return
          </CharString>
          <CharString index="252">
            rmoveto
            -253 52 vlineto
            115 166 rlineto
            87 vlineto
            endchar
          </CharString>
          <CharString index="253">
            270 callsubr
            -19 hvcurveto
            return
          </CharString>
          <CharString index="254">
            -242 40 642 294 callgsubr
            642 vlineto
            return
          </CharString>
          <CharString index="255">
            -33 callsubr
            18 20 callgsubr
            return
          </CharString>
          <CharString index="256">
            -47 callgsubr
            vlineto
            return
          </CharString>
          <CharString index="257">
            204 callgsubr
            -30 4 25 -17 47 hhcurveto
            115 hlineto
            86 45 -18 callgsubr
            140 vlineto
            return
          </CharString>
          <CharString index="258">
            rmoveto
            -178 hlineto
            -78 -271 -84 271 rlineto
            -179 hlineto
            177 -434 rlineto
            -208 175 210 vlineto
            endchar
          </CharString>
          <CharString index="259">
            -95 callsubr
            hlineto
            endchar
          </CharString>
          <CharString index="260">
            -87 callgsubr
            -69 callgsubr
            80 -170 -64 -86 callgsubr
            110 43 vlineto
            -20 callgsubr
            return
          </CharString>
          <CharString index="261">
            rmoveto
            -84 callsubr
            -85 -97 callgsubr
            80 -86 callsubr
            89 146 callsubr
            return
          </CharString>
          <CharString index="262">
            138 callgsubr
            -41 51 rlineto
            72 103 return
          </CharString>
          <CharString index="263" raw="1">
            fb3efc01 06341d0b  
          </CharString>
          <CharString index="264">
            221 callgsubr
            460 147 rmoveto
            return
          </CharString>
          <CharString index="265">
            vlineto
            32 callgsubr
            return
          </CharString>
          <CharString index="266">
            -231 hlineto
            1 -113 rlineto
            return
          </CharString>
          <CharString index="267">
            175 callsubr
            -476 -112 99 callgsubr
            return
          </CharString>
          <CharString index="268">
            -106 callsubr
            -238 -102 callgsubr
            -44 callsubr
            return
          </CharString>
          <CharString index="269">
            rmoveto
            -585 16 callgsubr
            -109 vlineto
            return
          </CharString>
          <CharString index="270">
            218 vlineto
            81 -31 36 -88 8 vhcurveto
            59 vlineto
            endchar
          </CharString>
          <CharString index="271">
            -19 6 -33 -45 callsubr
            170 hlineto
            36 23 10 18 13 279 callgsubr
            59 hhcurveto
            return
          </CharString>
          <CharString index="272">
            vlineto
            -87 callgsubr
            69 178 callsubr
            return
          </CharString>
          <CharString index="273">
            4 callgsubr
            endchar
          </CharString>
          <CharString index="274">
            vlineto
            -74 41 -32 89 vhcurveto
            return
          </CharString>
          <CharString index="275">
            rmoveto
            -80 callsubr
            -476 244 callsubr
            84 vlineto
            15 8 5 15 vhcurveto
            45 hlineto
            return
          </CharString>
          <CharString index="276">
            121 callsubr
            -60 282 callgsubr
            return
          </CharString>
          <CharString index="277">
            -11 callsubr
            294 return
          </CharString>
          <CharString index="278">
            -107 callgsubr
            257 return
          </CharString>
          <CharString index="279">
            -101 callgsubr
            11 103 return
          </CharString>
          <CharString index="280">
            hlineto
            126 callgsubr
          </CharString>
          <CharString index="281">
            rmoveto
            -422 -125 123 -517 175 517 124 hlineto
            endchar
          </CharString>
          <CharString index="282">
            -314 99 callgsubr
            return
          </CharString>
          <CharString index="283">
            191 callgsubr
            6 113 return
          </CharString>
          <CharString index="284">
            -102 callgsubr
            124 return
          </CharString>
          <CharString index="285">
            hlineto
            27 16 5 11 10 hvcurveto
            -106 170 return
          </CharString>
          <CharString index="286">
            -11 callgsubr
            250 callgsubr
            return
          </CharString>
          <CharString index="287">
            -113 285 return
          </CharString>
          <CharString index="288">
            67 hlineto
            80 31 31 69 hvcurveto
            65 -155 -25 vlineto
            -23 -5 -9 -23 vhcurveto
            -36 -28 57 -88 hhcurveto
            -67 hlineto
            -80 -31 -31 -69 hvcurveto
            -65 155 25 vlineto
            23 5 9 23 vhcurveto
            49 31 -57 72 hhcurveto
            return
          </CharString>
          <CharString index="289">
            -100 189 callsubr
            return
          </CharString>
          <CharString index="290">
            -20 callsubr
            518 return
          </CharString>
          <CharString index="291">
            133 150 rlineto
            return
          </CharString>
          <CharString index="292">
            10 507 242 rmoveto
            -68 127 -164 -127 -106 hlineto
            258 400 rlineto
            -176 hlineto
            -241 -372 rlineto
            -155 265 -115 164 115 68 vlineto
            endchar
          </CharString>
          <CharString index="293">
            8 4 4 10 vhcurveto
            11 hlineto
            9 4 -4 -8 hvcurveto
            -37 vlineto
            -32 -2 -10 -20 -18 vhcurveto
            -120 -111 rlineto
            -64 247 73 -117 vlineto
            73 65 rlineto
            28 25 16 31 49 vvcurveto
            return
          </CharString>
          <CharString index="294">
            hlineto
            -89 -41 -32 -74 hvcurveto
            -60 -59 callsubr
            -60 167 callsubr
            293 113 -260 -107 callsubr
            return
          </CharString>
          <CharString index="295">
            vlineto
            -93 41 -34 120 vhcurveto
            125 callsubr
          </CharString>
          <CharString index="296">
            -100 callsubr
            80 -82 callsubr
            45 hlineto
            return
          </CharString>
          <CharString index="297">
            250 callsubr
            -557 253 callgsubr
            return
          </CharString>
          <CharString index="298">
            -27 callgsubr
            -104 167 callsubr
            return
          </CharString>
          <CharString index="299">
            vlineto
            37 -17 15 -30 4 vhcurveto
            5 vlineto
            30 4 17 15 37 vvcurveto
            return
          </CharString>
          <CharString index="300">
            vlineto
            -71 callgsubr
            273 callgsubr
            return
          </CharString>
          <CharString index="301">
            325 642 rmoveto
            -345 -113 345 hlineto
            return
          </CharString>
          <CharString index="302">
            hlineto
            -67 -38 -13 -27 -19 hvcurveto
            -90 97 return
          </CharString>
          <CharString index="303">
            69 callsubr
            113 -60 return
          </CharString>
          <CharString index="304">
            -82 callsubr
            99 286 callgsubr
            -93 -91 callgsubr
            18 -82 callsubr
            endchar
          </CharString>
          <CharString index="305">
            -86 287 702 rmoveto
            -307 -762 rlineto
            144 hlineto
            307 762 rlineto
            endchar
          </CharString>
          <CharString index="306">
            -78 callgsubr
            68 -154 -9 callgsubr
            return
          </CharString>
          <CharString index="307">
            -51 callgsubr
            -23 -107 callsubr
            120 -86 callsubr
            return
          </CharString>
          <CharString index="308">
            212 callsubr
            324 return
          </CharString>
          <CharString index="309">
            vlineto
            -59 23 -33 49 -11 vhcurveto
            -99 -162 rlineto
            179 hlineto
            return
          </CharString>
          <CharString index="310">
            -79 callsubr
            23 113 -272 -113 73 hlineto
            -11 -12 -6 -18 -24 vvcurveto
            -100 202 callsubr
            return
          </CharString>
          <CharString index="311">
            225 rmoveto
            -51 callgsubr
            -149 -97 callgsubr
            64 5 callsubr
            82 hlineto
            return
          </CharString>
          <CharString index="312">
            -304 -90 callsubr
            return
          </CharString>
          <CharString index="313">
            -75 callgsubr
            60 -170 return
          </CharString>
          <CharString index="314">
            909 rmoveto
            -125 hlineto
            -106 callsubr
            -170 170 154 -82 callsubr
            72 hlineto
            -59 -31 245 callgsubr
          </CharString>
          <CharString index="315">
            -324 -9 callgsubr
            return
          </CharString>
          <CharString index="316">
            95 callsubr
            vlineto
            -93 45 -5 callgsubr
            return
          </CharString>
          <CharString index="317">
            hlineto
            110 51 -18 callgsubr
            return
          </CharString>
          <CharString index="318">
            -50 callgsubr
            103 return
          </CharString>
          <CharString index="319">
            113 callsubr
            86 hlineto
            120 41 34 93 hvcurveto
            return
          </CharString>
          <CharString index="320">
            -45 callgsubr
            124 158 callsubr
            -22 callgsubr
            return
          </CharString>
          <CharString index="321">
            rmoveto
            517 -175 -642 374 125 vlineto
            endchar
          </CharString>
          <CharString index="322">
            -5 callgsubr
            118 114 -48 hlineto
            -26 -5 5 26 hvcurveto
            9 vlineto
            26 5 5 26 vhcurveto
            26 hlineto
            21 12 -4 -18 11 hvcurveto
            103 -163 rlineto
            return
          </CharString>
          <CharString index="323">
            hlineto
            -141 201 rlineto
            -203 hlineto
            58 -75 39 -50 36 -40 45 -36 rlinecurve
            return
          </CharString>
          <CharString index="324">
            -97 101 callsubr
            return
          </CharString>
          <CharString index="325">
            264 221 callgsubr
            return
          </CharString>
          <CharString index="326">
            43 vlineto
            126 54 32 83 hvcurveto
            return
          </CharString>
          <CharString index="327">
            147 -5 callsubr
            return
          </CharString>
          <CharString index="328">
            -150 rlineto
            134 return
          </CharString>
          <CharString index="329">
            -150 315 callgsubr
            -42 -107 callsubr
            120 20 callsubr
          </CharString>
          <CharString index="330">
            vhcurveto
            52 140 callsubr
          </CharString>
          <CharString index="331">
            125 -50 callsubr
            return
          </CharString>
          <CharString index="332">
            -245 40 164 rmoveto
            -313 52 vlineto
            120 223 rlineto
            90 vlineto
            return
          </CharString>
          <CharString index="333">
            114 38 34 65 hvcurveto
            93 return
          </CharString>
          <CharString index="334">
            -33 231 callgsubr
          </CharString>
          <CharString index="335">
            458 642 rmoveto
            -478 -113 478 hlineto
            return
          </CharString>
          <CharString index="336">
            -170 -64 vlineto
            return
          </CharString>
          <CharString index="337">
            -33 rmoveto
            310 callsubr
            288 hlineto
            44 22 24 41 vhcurveto
            57 148 -15 hlineto
            -59 -38 -32 -50 -11 hvcurveto
            endchar
          </CharString>
          <CharString index="338">
            rmoveto
            -64 vlineto
            253 callsubr
            return
          </CharString>
          <CharString index="339">
            rmoveto
            -343 vlineto
            -143 343 rlineto
            -150 -642 160 337 hlineto
            143 -337 rlineto
            150 642 hlineto
            return
          </CharString>
          <CharString index="340">
            28 -5 19 -21 10 vhcurveto
            21 11 5 22 29 vvcurveto
            47 vlineto
            41 -22 27 -59 vhcurveto
            -87 hlineto
            -59 -22 -27 -41 hvcurveto
            -47 106 return
          </CharString>
          <CharString index="341">
            -36 callgsubr
            305 92 callgsubr
          </CharString>
          <CharString index="342">
            rmoveto
            -59 -38 -32 -50 -11 hvcurveto
            77 310 callsubr
            288 vlineto
            44 22 24 41 vhcurveto
            57 148 hlineto
            endchar
          </CharString>
          <CharString index="343">
            vlineto
            127 223 rlineto
            90 vlineto
            return
          </CharString>
          <CharString index="344">
            -100 callgsubr
            154 60 return
          </CharString>
          <CharString index="345">
            -328 hlineto
            -106 callsubr
            return
          </CharString>
          <CharString index="346">
            vlineto
            2 callsubr
            return
          </CharString>
          <CharString index="347">
            -86 callsubr
            29 hlineto
            19 4 -9 -15 hvcurveto
            -137 170 137 -1 callsubr
            47 return
          </CharString>
          <CharString index="348">
            -21 -11 -5 -17 vhcurveto
            -86 hlineto
            -17 -11 5 21 hvcurveto
            64 vlineto
            21 11 5 17 vhcurveto
            86 hlineto
            17 11 -5 -21 hvcurveto
            return
          </CharString>
          <CharString index="349">
            -57 63 callsubr
            return
          </CharString>
          <CharString index="350">
            -77 callgsubr
            hlineto
            return
          </CharString>
          <CharString index="351">
            -104 -100 callsubr
            return
          </CharString>
          <CharString index="352">
            529 rmoveto
            113 return
          </CharString>
          <CharString index="353">
            332 rmoveto
            -49 callsubr
            397 427 rmoveto
            return
          </CharString>
          <CharString index="354">
            709 rmoveto
            103 -106 211 callgsubr
            -73 170 57 -82 callsubr
            endchar
          </CharString>
          <CharString index="355">
            -113 64 290 callsubr
            return
          </CharString>
          <CharString index="356">
            hlineto
            -86 -45 -34 -93 hvcurveto
            return
          </CharString>
          <CharString index="357">
            rmoveto
            170 89 113 return
          </CharString>
          <CharString index="358">
            -8 5 15 hvcurveto
            return
          </CharString>
          <CharString index="359">
            292 callsubr
            hlineto
            93 callsubr
            return
          </CharString>
          <CharString index="360">
            40 -9 -30 24 -52 304 callsubr
            return
          </CharString>
          <CharString index="361">
            -82 callsubr
            63 hlineto
            return
          </CharString>
          <CharString index="362">
            -58 callgsubr
            33 return
          </CharString>
          <CharString index="363">
            vlineto
            -84 33 -35 94 -7 vhcurveto
            -95 -148 rlineto
            31 callsubr
            return
          </CharString>
          <CharString index="364">
            472 rmoveto
            70 callsubr
            return
          </CharString>
          <CharString index="365">
            284 517 rmoveto
            17 8 -7 -15 hvcurveto
            -126 102 callsubr
            -69 170 hlineto
            return
          </CharString>
          <CharString index="366">
            -497 -187 843 rmoveto
            -203 hlineto
            58 -75 40 -51 37 -41 47 -37 rlinecurve
            164 hlineto
            return
          </CharString>
          <CharString index="367">
            267 callsubr
            -170 return
          </CharString>
          <CharString index="368">
            -17 -6 vlineto
            271 callsubr
          </CharString>
          <CharString index="369">
            473 642 rmoveto
            -493 -113 493 hlineto
            return
          </CharString>
          <CharString index="370">
            -132 rmoveto
            -58 callsubr
            return
          </CharString>
          <CharString index="371">
            -57 267 callsubr
            return
          </CharString>
          <CharString index="372">
            -96 -158 rlineto
            283 callsubr
          </CharString>
          <CharString index="373">
            32 callsubr
            -88 41 -35 77 -4 vhcurveto
            -96 -158 rlineto
            179 hlineto
            return
          </CharString>
          <CharString index="374">
            -240 -257 hlineto
            171 callsubr
            return
          </CharString>
          <CharString index="375">
            -174 283 642 rmoveto
            -265 -125 90 -517 175 hlineto
            endchar
          </CharString>
          <CharString index="376">
            455 hmoveto
            113 return
          </CharString>
          <CharString index="377">
            hlineto
            -3 callgsubr
            return
          </CharString>
          <CharString index="378">
            72 callgsubr
            hlineto
            endchar
          </CharString>
          <CharString index="379">
            -91 callsubr
            244 return
          </CharString>
          <CharString index="380">
            rmoveto
            -162 -130 162 hlineto
            return
          </CharString>
          <CharString index="381">
            -642 175 return
          </CharString>
          <CharString index="382">
            vlineto
            -81 41 -26 74 vhcurveto
            77 hlineto
            27 16 5 11 10 hvcurveto
            -107 120 return
          </CharString>
          <CharString index="383">
            125 314 rlineto
            -188 hlineto
            -119 -314 120 -328 rlineto
            return
          </CharString>
          <CharString index="384">
            -91 callgsubr
            40 -162 -56 vlineto
            -73 26 -44 -11 callgsubr
            return
          </CharString>
          <CharString index="385">
            278 215 rmoveto
            -84 callsubr
            return
          </CharString>
          <CharString index="386">
            hlineto
            -97 -150 rlineto
            return
          </CharString>
          <CharString index="387">
            353 -2 rmoveto
            -106 111 rlineto
            67 hlineto
            17 11 1 3 11 hvcurveto
            return
          </CharString>
          <CharString index="388">
            rlineto
            31 callsubr
            -94 149 rlineto
            return
          </CharString>
          <CharString index="389">
            rmoveto
            95 callgsubr
            613 return
          </CharString>
          <CharString index="390">
            179 hlineto
            93 157 rlineto
            -97 -94 callsubr
          </CharString>
          <CharString index="391">
            31 callsubr
            -95 151 rlineto
            return
          </CharString>
          <CharString index="392">
            843 rmoveto
            152 -98 71 -46 40 -25 70 -35 rlinecurve
            172 return
          </CharString>
          <CharString index="393">
            315 callsubr
            87 vlineto
            10 -2 8 -4 7 vhcurveto
            return
          </CharString>
          <CharString index="394">
            -280 rmoveto
            -84 callsubr
            -36 -97 callgsubr
            return
          </CharString>
          <CharString index="395">
            235 -55 callgsubr
            return
          </CharString>
          <CharString index="396">
            -154 20 245 rmoveto
            303 115 -303 hlineto
            endchar
          </CharString>
          <CharString index="397">
            hlineto
            -4 -11 -2 -12 -15 vvcurveto
            return
          </CharString>
          <CharString index="398">
            233 750 642 rmoveto
            return
          </CharString>
          <CharString index="399">
            -113 232 callgsubr
            return
          </CharString>
          <CharString index="400">
            rmoveto
            318 callgsubr
            return
          </CharString>
          <CharString index="401">
            -73 35 -34 76 vhcurveto
            return
          </CharString>
          <CharString index="402">
            41 -21 27 -59 vhcurveto
            -88 hlineto
            -59 -22 -27 -41 hvcurveto
            -63 106 return
          </CharString>
          <CharString index="403">
            -130 152 -175 -152 -129 -115 129 return
          </CharString>
          <CharString index="404">
            -38 callgsubr
            134 -20 callsubr
            return
          </CharString>
          <CharString index="405">
            -54 callsubr
            36 -64 callsubr
            return
          </CharString>
          <CharString index="406">
            102 callsubr
            -36 -58 callgsubr
            return
          </CharString>
          <CharString index="407">
            vlineto
            104 callsubr
            -46 -107 callsubr
            return
          </CharString>
          <CharString index="408">
            rmoveto
            -170 -706 170 hlineto
            return
          </CharString>
          <CharString index="409">
            vlineto
            -127 -223 rlineto
            -90 vlineto
            return
          </CharString>
          <CharString index="410">
            hvcurveto
            -47 -79 callgsubr
            return
          </CharString>
          <CharString index="411">
            hhcurveto
            -18 hlineto
            -95 -38 -49 -75 hvcurveto
            return
          </CharString>
          <CharString index="412">
            56 -28 29 -72 vhcurveto
            return
          </CharString>
          <CharString index="413">
            rlineto
            157 hlineto
            return
          </CharString>
          <CharString index="414">
            -608 -113 return
          </CharString>
          <CharString index="415">
            -34 callsubr
            -29 -58 callgsubr
            return
          </CharString>
          <CharString index="416">
            67 -64 callsubr
            -267 137 rmoveto
            return
          </CharString>
          <CharString index="417">
            -167 -499 170 return
          </CharString>
          <CharString index="418">
            vlineto
            107 40 49 75 hvcurveto
            return
          </CharString>
          <CharString index="419">
            30 -4 -25 17 -47 hhcurveto
            return
          </CharString>
          <CharString index="420">
            499 vlineto
            endchar
          </CharString>
          <CharString index="421">
            -338 119 callgsubr
            314 75 return
          </CharString>
          <CharString index="422">
            hlineto
            4 7 2 8 10 vvcurveto
            return
          </CharString>
          <CharString index="423">
            229 callgsubr
            30 return
          </CharString>
          <CharString index="424">
            319 callsubr
            -97 -98 hlineto
            return
          </CharString>
          <CharString index="425">
            152 130 return
          </CharString>
          <CharString index="426">
            -113 288 return
          </CharString>
          <CharString index="427">
            rlineto
            179 hlineto
            122 319 callgsubr
            return
          </CharString>
          <CharString index="428">
            vlineto
            -83 -40 rlineto
            -115 vlineto
            83 40 rlineto
            return
          </CharString>
          <CharString index="429" raw="1">
            271df710 0b  
          </CharString>
          <CharString index="430">
            -82 callsubr
            45 hlineto
            -482 return
          </CharString>
          <CharString index="431">
            -213 40 vlineto
            76 136 rlineto
            77 vlineto
            return
          </CharString>
          <CharString index="432">
            rmoveto
            176 120 -176 hlineto
            endchar
          </CharString>
        <CharString name=".notdef">
          259 160 hmoveto
          436 701 -436 hlineto
          81 -76 rmoveto
          275 -549 -275 hlineto
          endchar
        </CharString>
        <CharString name="A">
          46 220 220 -30 callsubr
        </CharString>
        <CharString name="AE">
          273 259 235 rmoveto
          110 296 rlineto
          -296 vlineto
          165 -110 rmoveto
          136 181 125 -181 131 210 125 -489 vlineto
          -255 -642 rlineto
          172 hlineto
          43 115 rlineto
          154 -115 384 125 hlineto
          endchar
        </CharString>
        <CharString name="Aacute">
          46 474 825 31 callgsubr
          -121 -455 -30 callsubr
        </CharString>
        <CharString name="Abreve">
          46 321 675 rmoveto
          107 40 49 75 hvcurveto
          26 -150 89 callgsubr
          -1 -455 -30 callsubr
        </CharString>
        <CharString name="Acircumflex">
          46 271 744 28 callsubr
          2 -455 -30 callsubr
        </CharString>
        <CharString name="Adieresis">
          46 467 805 49 callgsubr
          -7 -455 -30 callsubr
        </CharString>
        <CharString name="Agrave">
          46 331 675 111 callgsubr
          23 -455 -30 callsubr
        </CharString>
        <CharString name="Amacron">
          46 466 781 226 callgsubr
          -246 -455 -30 callsubr
        </CharString>
        <CharString name="Aogonek">
          46 220 220 rmoveto
          51 231 49 -231 rlineto
          152 -397 rmoveto
          95 callgsubr
          129 -6 hlineto
          -161 627 rlineto
          -213 hlineto
          -165 -642 rlineto
          172 hlineto
          21 96 rlineto
          154 hlineto
          20 -96 rlineto
          87 -17 -6 hlineto
          271 callsubr
        </CharString>
        <CharString name="Aring">
          46 233 778 15 callsubr
          -9 -454 -30 callsubr
        </CharString>
        <CharString name="Atilde">
          46 198 706 rmoveto
          178 callgsubr
          6 callsubr
          vlineto
          22 -455 -30 callsubr
        </CharString>
        <CharString name="B">
          19 40 642 rmoveto
          -642 294 311 callsubr
          96 vlineto
          51 -9 35 -39 17 vhcurveto
          39 21 9 40 52 vvcurveto
          82 -22 callsubr
          -25 -505 -5 callsubr
          -72 149 72 -64 callsubr
          159 vmoveto
          -34 callsubr
          -72 148 72 -64 callsubr
          endchar
        </CharString>
        <CharString name="C">
          -2 470 402 -3 callsubr
        </CharString>
        <CharString name="CR">
          -297 endchar
        </CharString>
        <CharString name="Cacute">
          -2 450 825 31 callgsubr
          153 -273 -3 callsubr
        </CharString>
        <CharString name="Ccaron">
          -2 327 675 -2 callsubr
          297 -273 -3 callsubr
        </CharString>
        <CharString name="Ccedilla">
          -2 170 -123 -5 callsubr
          -53 -115 91 -20 callsubr
          90 -160 vlineto
          300 448 -3 callsubr
        </CharString>
        <CharString name="D">
          32 317 137 188 callgsubr
        </CharString>
        <CharString name="Dcaron">
          32 337 675 -2 callsubr
          134 -538 188 callgsubr
        </CharString>
        <CharString name="Dcroat">
          40 317 220 callsubr
          -67 144 55 115 -55 133 67 -64 callsubr
          -267 147 rmoveto
          -258 -55 -115 55 -269 295 311 callsubr
          394 -22 callsubr
          endchar
        </CharString>
        <CharString name="E">
          -48 215 125 rmoveto
          136 48 callsubr
          vlineto
          endchar
        </CharString>
        <CharString name="Eacute">
          -48 432 825 31 callgsubr
          -84 -550 rmoveto
          136 48 callsubr
          vlineto
          endchar
        </CharString>
        <CharString name="Ecaron">
          -48 316 675 -2 callsubr
          53 -414 rmoveto
          48 callsubr
          -219 hlineto
          endchar
        </CharString>
        <CharString name="Ecircumflex">
          -48 236 744 28 callsubr
          32 -414 rmoveto
          48 callsubr
          -219 hlineto
          endchar
        </CharString>
        <CharString name="Edieresis">
          3 430 805 49 callgsubr
          25 -550 rmoveto
          136 48 callsubr
          vlineto
          endchar
        </CharString>
        <CharString name="Edotaccent">
          -48 320 805 273 callsubr
          -105 -550 rmoveto
          136 48 callsubr
          vlineto
          endchar
        </CharString>
        <CharString name="Egrave">
          -48 302 675 111 callgsubr
          47 -550 rmoveto
          136 48 callsubr
          vlineto
          endchar
        </CharString>
        <CharString name="Emacron">
          -48 425 781 226 callgsubr
          -210 -550 rmoveto
          136 48 callsubr
          vlineto
          endchar
        </CharString>
        <CharString name="Eogonek">
          -48 362 -177 rmoveto
          95 callgsubr
          129 -1 110 -219 136 181 125 -181 131 210 125 -385 -642 304 -17 -6 hlineto
          271 callsubr
        </CharString>
        <CharString name="Eth">
          30 317 304 callgsubr
          -67 154 55 115 -55 143 309 callsubr
          -258 -55 -115 55 -269 295 311 callsubr
          394 -22 callsubr
          endchar
        </CharString>
        <CharString name="Euro">
          19 491 402 rmoveto
          116 -22 callsubr
          -141 115 callgsubr
          -85 -41 -96 41 -32 -41 -96 41 -85 -38 callgsubr
          141 -20 callsubr
          112 -175 -99 102 callsubr
          -35 -58 callgsubr
          72 59 96 -59 32 59 96 -59 72 -54 callsubr
          35 -64 callsubr
          -103 vlineto
          endchar
        </CharString>
        <CharString name="F">
          -57 425 517 rmoveto
          125 -385 274 callsubr
          246 182 115 -182 156 vlineto
          endchar
        </CharString>
        <CharString name="G">
          4 471 422 37 callgsubr
        </CharString>
        <CharString name="Gbreve">
          4 303 675 rmoveto
          107 40 49 75 hvcurveto
          26 -150 89 callgsubr
          268 -253 37 callgsubr
        </CharString>
        <CharString name="H">
          53 338 642 rmoveto
          -263 -126 263 -172 -642 172 254 126 -254 172 642 vlineto
          endchar
        </CharString>
        <CharString name="I">
          147 callsubr
          endchar
        </CharString>
        <CharString name="Iacute">
          147 callsubr
          -159 33 123 callsubr
          endchar
        </CharString>
        <CharString name="Icircumflex">
          147 callsubr
          -298 33 190 callgsubr
        </CharString>
        <CharString name="Idieresis">
          -242 -68 675 144 callgsubr
          -132 -163 294 callgsubr
          642 vlineto
          endchar
        </CharString>
        <CharString name="Idotaccent">
          147 callsubr
          -168 33 326 callgsubr
        </CharString>
        <CharString name="Igrave">
          147 callsubr
          -118 183 248 callgsubr
        </CharString>
        <CharString name="Imacron">
          147 callsubr
          -281 33 298 callgsubr
        </CharString>
        <CharString name="Iogonek">
          -242 142 -177 rmoveto
          95 callgsubr
          756 -175 -642 84 -17 -6 hlineto
          271 callsubr
        </CharString>
        <CharString name="J">
          -40 10 257 rmoveto
          -133 -38 callgsubr
          117 183 callsubr
          -175 -495 102 callsubr
          -11 -58 callgsubr
          110 vlineto
          endchar
        </CharString>
        <CharString name="K">
          33 40 hmoveto
          175 642 -175 hlineto
          358 -314 rmoveto
          276 callsubr
          188 hlineto
          endchar
        </CharString>
        <CharString name="L">
          -83 215 125 214 callsubr
        </CharString>
        <CharString name="Lacute">
          -83 332 825 31 callgsubr
          16 -550 214 callsubr
        </CharString>
        <CharString name="Lcaron">
          -83 366 565 rmoveto
          77 -116 -213 40 vlineto
          -75 -304 214 callsubr
        </CharString>
        <CharString name="Lslash">
          -63 225 125 rmoveto
          196 vlineto
          110 53 rlineto
          115 vlineto
          -110 -53 rlineto
          206 -175 -290 vlineto
          -89 -43 rlineto
          -115 vlineto
          89 43 rlineto
          -237 374 125 vlineto
          endchar
        </CharString>
        <CharString name="M">
          173 395 139 rmoveto
          80 269 rlineto
          -408 155 642 -191 vlineto
          -104 -343 -104 343 rlineto
          -191 -642 156 406 hlineto
          79 -267 rlineto
          endchar
        </CharString>
        <CharString name="N">
          128 callsubr
          endchar
        </CharString>
        <CharString name="NULL">
          -497 endchar
        </CharString>
        <CharString name="Nacute">
          36 188 675 123 callsubr
          48 -183 228 callgsubr
        </CharString>
        <CharString name="Ncaron">
          36 187 674 144 callsubr
          279 -182 228 callgsubr
        </CharString>
        <CharString name="Ntilde">
          128 callsubr
          -146 33 rmoveto
          6 callsubr
          31 vlineto
          178 callgsubr
          endchar
        </CharString>
        <CharString name="O">
          19 304 147 -60 callgsubr
        </CharString>
        <CharString name="OE">
          243 332 304 callgsubr
          -42 98 callgsubr
          42 -64 callsubr
          155 -390 rmoveto
          151 181 115 -181 146 210 115 -335 -20 vlineto
          13 -18 -23 7 -31 hhcurveto
          -78 hlineto
          -7 callgsubr
          78 hlineto
          31 23 7 13 18 hvcurveto
          -20 344 115 vlineto
          endchar
        </CharString>
        <CharString name="Oacute">
          19 462 825 31 callgsubr
          -25 -528 -60 callgsubr
        </CharString>
        <CharString name="Ocircumflex">
          19 256 744 28 callsubr
          101 -528 -60 callgsubr
        </CharString>
        <CharString name="Odieresis">
          3 454 805 49 callgsubr
          90 -528 -60 callgsubr
        </CharString>
        <CharString name="Ograve">
          19 322 675 111 callgsubr
          116 -528 -60 callgsubr
        </CharString>
        <CharString name="Ohungarumlaut">
          3 410 674 106 callsubr
          84 -527 -60 callgsubr
        </CharString>
        <CharString name="Omacron">
          19 452 781 226 callgsubr
          -148 -528 -60 callgsubr
        </CharString>
        <CharString name="Oslash">
          19 314 304 callgsubr
          -62 -58 callgsubr
          15 vlineto
          112 197 rlineto
          -112 156 rmoveto
          15 8 7 17 vhcurveto
          62 -64 callsubr
          -26 vlineto
          -112 -197 rlineto
          290 380 rmoveto
          -74 hlineto
          -17 -29 rlineto
          6 -19 -23 3 -27 hhcurveto
          -148 115 callgsubr
          -394 vlineto
          -34 8 -29 19 -21 vhcurveto
          -34 -60 rlineto
          74 hlineto
          16 28 rlineto
          -5 18 21 -3 25 hhcurveto
          148 -20 callsubr
          394 vlineto
          32 -7 27 -17 21 vhcurveto
          endchar
        </CharString>
        <CharString name="Otilde">
          19 194 706 rmoveto
          178 callgsubr
          6 callsubr
          vlineto
          110 -528 -60 callgsubr
        </CharString>
        <CharString name="P">
          7 309 357 -5 callsubr
          -69 182 69 -64 callsubr
          -269 147 294 callgsubr
          210 122 311 callsubr
          184 -22 callsubr
          endchar
        </CharString>
        <CharString name="Q">
          19 212 495 rmoveto
          15 8 7 17 vhcurveto
          42 -64 callsubr
          -348 102 callsubr
          -42 -58 callgsubr
          323 -215 rmoveto
          -93 99 rlineto
          26 22 11 32 39 vvcurveto
          394 -22 callsubr
          -148 hlineto
          -7 callgsubr
          89 hlineto
          63 -68 rlineto
          endchar
        </CharString>
        <CharString name="R">
          17 284 517 62 callsubr
        </CharString>
        <CharString name="Racute">
          17 443 824 31 callgsubr
          -26 -157 62 callsubr
        </CharString>
        <CharString name="Rcaron">
          17 331 674 -2 callsubr
          107 -157 62 callsubr
        </CharString>
        <CharString name="S">
          -6 286 147 75 callsubr
        </CharString>
        <CharString name="Sacute">
          -6 193 675 123 callsubr
          -4 74 callsubr
        </CharString>
        <CharString name="Scaron">
          -6 168 675 144 callsubr
          251 74 callsubr
        </CharString>
        <CharString name="T">
          -65 427 642 174 callsubr
        </CharString>
        <CharString name="Tcaron">
          -65 290 675 -2 callsubr
          291 -33 174 callsubr
        </CharString>
        <CharString name="Thorn">
          37 304 257 -5 callsubr
          -59 171 59 -64 callsubr
          -84 142 rmoveto
          116 -175 274 callsubr
          115 112 311 callsubr
          163 -22 callsubr
          endchar
        </CharString>
        <CharString name="U">
          25 307 642 -10 callsubr
        </CharString>
        <CharString name="Uacute">
          25 453 825 31 callgsubr
          -13 -33 -10 callsubr
        </CharString>
        <CharString name="Ucircumflex">
          25 261 744 28 callsubr
          99 -33 -10 callsubr
        </CharString>
        <CharString name="Udieresis">
          25 456 805 49 callgsubr
          91 -33 -10 callsubr
        </CharString>
        <CharString name="Ugrave">
          25 326 675 111 callgsubr
          115 -33 -10 callsubr
        </CharString>
        <CharString name="Uhungarumlaut">
          3 402 675 106 callsubr
          95 -528 -5 callsubr
          -42 -58 callgsubr
          495 -175 -518 -38 callgsubr
          148 183 callsubr
          -175 vlineto
          endchar
        </CharString>
        <CharString name="Umacron">
          25 456 781 226 callgsubr
          -149 -33 -10 callsubr
        </CharString>
        <CharString name="Uogonek">
          25 307 642 rmoveto
          -495 102 callsubr
          -42 -58 callgsubr
          495 -175 -518 -38 callgsubr
          39 -17 -6 hlineto
          72 callgsubr
          -91 hlineto
          95 callgsubr
          114 18 183 callsubr
          vlineto
          endchar
        </CharString>
        <CharString name="Uring">
          25 222 778 15 callsubr
          89 -32 -10 callsubr
        </CharString>
        <CharString name="V">
          36 344 642 rmoveto
          -78 -429 -77 429 rlineto
          -182 hlineto
          158 -642 rlineto
          203 hlineto
          158 642 rlineto
          endchar
        </CharString>
        <CharString name="W">
          339 653 642 rmoveto
          -64 -432 -86 432 rlineto
          -171 hlineto
          -86 -432 -54 432 rlineto
          -182 hlineto
          136 -642 rlineto
          201 hlineto
          71 383 71 -383 rlineto
          201 hlineto
          136 642 rlineto
          endchar
        </CharString>
        <CharString name="X">
          24 354 326 rmoveto
          143 316 rlineto
          -188 hlineto
          -54 -164 -53 164 rlineto
          -198 hlineto
          153 -316 -157 -326 rlineto
          186 hlineto
          69 180 69 -180 rlineto
          197 hlineto
          endchar
        </CharString>
        <CharString name="Y">
          22 519 642 151 callsubr
        </CharString>
        <CharString name="Yacute">
          22 453 825 31 callgsubr
          199 -33 151 callsubr
        </CharString>
        <CharString name="Ydieresis">
          3 446 823 49 callgsubr
          313 -51 151 callsubr
        </CharString>
        <CharString name="Z">
          -33 444 642 231 callgsubr
        </CharString>
        <CharString name="Zacute">
          -33 431 825 31 callgsubr
          146 227 callsubr
        </CharString>
        <CharString name="Zcaron">
          -33 326 675 -2 callsubr
          -139 -158 rmoveto
          132 callgsubr
          125 -411 vlineto
          endchar
        </CharString>
        <CharString name="Zdotaccent">
          -33 325 805 273 callsubr
          119 227 callsubr
        </CharString>
        <CharString name="a">
          -18 225 125 -36 callsubr
          -54 170 313 callsubr
        </CharString>
        <CharString name="aacute">
          -18 443 682 31 callgsubr
          -85 -407 -4 callgsubr
          endchar
        </CharString>
        <CharString name="abreve">
          -18 225 125 -4 callgsubr
          35 183 rmoveto
          89 callgsubr
          100 -20 callsubr
          26 vlineto
          endchar
        </CharString>
        <CharString name="acircumflex">
          -18 241 601 28 callsubr
          37 -407 -4 callgsubr
          endchar
        </CharString>
        <CharString name="acute">
          3 116 532 123 callsubr
          endchar
        </CharString>
        <CharString name="adieresis">
          -18 206 672 rmoveto
          -152 -130 152 hlineto
          19 -417 -4 callgsubr
          22 173 rmoveto
          -130 318 callsubr
          vlineto
          endchar
        </CharString>
        <CharString name="ae">
          239 261 callgsubr
          -295 -175 249 callgsubr
          27 vlineto
          69 29 rlineto
          -48 229 callgsubr
          234 374 rmoveto
          -69 -41 -21 -35 -21 hvcurveto
          35 -19 -47 21 -48 hhcurveto
          -68 hlineto
          -95 -38 -49 -75 hvcurveto
          -66 170 43 217 callgsubr
          -38 vlineto
          -239 -98 rlineto
          -84 186 callgsubr
          67 hlineto
          48 47 21 35 19 hvcurveto
          -35 21 41 -21 69 hhcurveto
          63 -20 callsubr
          43 -165 -25 299 callsubr
          59 251 174 -22 callsubr
          endchar
        </CharString>
        <CharString name="agrave">
          -18 334 532 111 callgsubr
          25 -407 -36 callsubr
          -54 170 313 callsubr
        </CharString>
        <CharString name="amacron">
          -18 434 661 226 callgsubr
          -209 -430 -36 callsubr
          -54 170 313 callsubr
        </CharString>
        <CharString name="ampersand">
          128 220 115 249 callgsubr
          42 vlineto
          20 8 9 15 9 vhcurveto
          17 10 108 -112 rlineto
          -107 393 rmoveto
          15 8 7 17 vhcurveto
          23 -64 callsubr
          -61 vlineto
          -26 -16 -9 -34 -19 vhcurveto
          -18 19 -5 9 22 vvcurveto
          426 -479 rmoveto
          -84 90 rlineto
          13 19 6 24 27 vvcurveto
          127 -138 -70 vlineto
          -106 113 16 9 rlineto
          68 41 37 27 79 vvcurveto
          68 vlineto
          75 -37 49 -107 vhcurveto
          -117 115 callgsubr
          -68 vlineto
          -41 19 -26 51 -53 vhcurveto
          4 -5 -16 -9 rlineto
          -70 -39 -24 -26 -69 vvcurveto
          -58 -38 callgsubr
          265 hlineto
          11 hlineto
          35 -36 rlineto
          endchar
        </CharString>
        <CharString name="aogonek">
          -18 225 224 callsubr
          124 -302 282 callsubr
          -167 -64 hlineto
          60 callgsubr
          79 261 callsubr
        </CharString>
        <CharString name="apostrophemod">
          268 callgsubr
        </CharString>
        <CharString name="approxequal">
          66 360 335 rmoveto
          181 callsubr
          -196 vmoveto
          181 callsubr
          endchar
        </CharString>
        <CharString name="aring">
          -18 201 634 15 callsubr
          28 -405 -36 callsubr
          -54 170 313 callsubr
        </CharString>
        <CharString name="asciicircum">
          207 214 669 rmoveto
          -122 -389 rlineto
          177 hlineto
          61 245 61 -245 rlineto
          177 hlineto
          -122 389 rlineto
          endchar
        </CharString>
        <CharString name="asciitilde">
          222 441 204 rmoveto
          67 hlineto
          80 31 31 69 hvcurveto
          85 -155 -45 vlineto
          -23 -5 -9 -23 vhcurveto
          -36 -38 77 -88 hhcurveto
          -67 hlineto
          -80 -31 -31 -69 hvcurveto
          -85 155 45 vlineto
          23 5 9 23 vhcurveto
          49 41 -77 72 hhcurveto
          endchar
        </CharString>
        <CharString name="asterisk">
          -107 373 469 rmoveto
          -38 118 -16 -5 -30 -9 -23 -13 -19 -12 rlinecurve
          7 21 4 26 30 vvcurveto
          17 -125 -16 vlineto
          -31 5 -27 6 -21 vhcurveto
          -18 12 -24 13 -29 9 -16 5 rcurveline
          -39 -118 15 -5 30 -10 27 -4 22 -1 rlinecurve
          -17 -13 -19 -18 -18 -25 -11 -15 rcurveline
          101 -73 10 13 19 26 12 24 7 22 rlinecurve
          8 -21 11 -24 18 -25 11 -14 rcurveline
          101 73 -10 13 -18 25 -19 19 -18 14 rlinecurve
          22 1 26 3 29 10 rrcurveto
          endchar
        </CharString>
        <CharString name="at">
          366 247 324 rmoveto
          -131 vlineto
          -68 35 -45 86 vhcurveto
          16 hlineto
          49 27 23 38 8 hvcurveto
          -61 216 vlineto
          95 38 49 75 hvcurveto
          290 vlineto
          75 -36 49 -95 vhcurveto
          -513 hlineto
          -95 -38 -49 -75 hvcurveto
          -474 186 callgsubr
          430 115 -388 -58 callgsubr
          448 -54 callsubr
          431 -64 callsubr
          -275 102 callsubr
          -44 253 -135 -58 hlineto
          36 -9 -27 22 -47 hhcurveto
          -16 hlineto
          -86 -35 -45 -68 hvcurveto
          146 -12 rmoveto
          14 7 6 15 vhcurveto
          25 hlineto
          16 8 -8 -19 hvcurveto
          -93 vlineto
          -19 -8 -8 -16 vhcurveto
          -25 hlineto
          -15 -7 6 14 hvcurveto
          endchar
        </CharString>
        <CharString name="atilde">
          -18 177 563 rmoveto
          178 callgsubr
          6 callsubr
          vlineto
          48 -407 -36 callsubr
          -54 170 313 callsubr
        </CharString>
        <CharString name="b">
          -18 279 124 callgsubr
          -47 -29 -20 -34 -12 hvcurveto
          224 -170 -669 167 64 vlineto
          -40 9 30 -24 52 224 callgsubr
        </CharString>
        <CharString name="backslash">
          -86 -20 702 rmoveto
          307 -762 rlineto
          144 hlineto
          -307 762 rlineto
          endchar
        </CharString>
        <CharString name="bar">
          -231 50 833 rmoveto
          -1026 155 1026 vlineto
          endchar
        </CharString>
        <CharString name="braceleft">
          -171 265 654 rmoveto
          15 8 7 17 vhcurveto
          26 115 -79 hlineto
          -107 -40 -59 -75 hvcurveto
          -200 vlineto
          -57 -18 -25 -49 vhcurveto
          -7 -115 7 hlineto
          49 18 -25 -55 hvcurveto
          -202 vlineto
          -75 40 -59 107 vhcurveto
          79 115 -26 -58 callgsubr
          223 vlineto
          71 -32 40 -46 3 vhcurveto
          42 10 36 33 82 vvcurveto
          endchar
        </CharString>
        <CharString name="braceright">
          -171 61 443 rmoveto
          -82 36 -33 42 -10 vhcurveto
          -46 -3 -32 -40 -71 vvcurveto
          -223 102 callsubr
          -26 -115 79 hlineto
          107 40 59 75 hvcurveto
          202 vlineto
          55 18 25 49 vhcurveto
          7 115 -7 hlineto
          -49 -18 25 57 hvcurveto
          200 vlineto
          75 -40 59 -107 vhcurveto
          -79 -115 26 -64 callsubr
          endchar
        </CharString>
        <CharString name="bracketleft">
          -180 307 666 rmoveto
          125 -267 -948 267 125 -92 698 vlineto
          endchar
        </CharString>
        <CharString name="bracketright">
          -180 277 791 rmoveto
          -267 -125 92 -698 -92 -125 267 hlineto
          endchar
        </CharString>
        <CharString name="breve">
          3 297 682 rmoveto
          89 callgsubr
          100 -20 callsubr
          26 vlineto
          endchar
        </CharString>
        <CharString name="brokenbar">
          -231 40 262 rmoveto
          -355 175 355 vlineto
          116 vmoveto
          355 -175 -355 vlineto
          endchar
        </CharString>
        <CharString name="bullet">
          -101 50 321 rmoveto
          -81 67 -67 81 81 67 67 81 81 -67 67 -81 -81 -67 -67 -81 vhcurveto
          endchar
        </CharString>
        <CharString name="c">
          -46 431 306 rmoveto
          69 -22 callsubr
          -107 hlineto
          22 callsubr
          vlineto
          endchar
        </CharString>
        <CharString name="cacute">
          -46 433 682 31 callgsubr
          -123 -33 rmoveto
          22 callsubr
          164 69 -22 callsubr
          endchar
        </CharString>
        <CharString name="caron">
          3 173 532 144 callsubr
          endchar
        </CharString>
        <CharString name="ccaron">
          -46 303 532 -2 callsubr
          28 -33 rmoveto
          22 callsubr
          164 69 -22 callsubr
          endchar
        </CharString>
        <CharString name="ccedilla">
          -46 156 -123 -5 callsubr
          -53 -115 91 -20 callsubr
          90 -160 vlineto
          275 352 rmoveto
          69 -22 callsubr
          -107 hlineto
          22 callsubr
          vlineto
          endchar
        </CharString>
        <CharString name="cedilla">
          3 199 -123 -5 callsubr
          -53 -115 91 -20 callsubr
          90 -160 vlineto
          endchar
        </CharString>
        <CharString name="cent">
          -46 431 306 rmoveto
          69 vlineto
          67 -32 47 -84 8 vhcurveto
          82 -165 -81 vlineto
          -87 -8 -33 -47 -68 vvcurveto
          -251 vlineto
          -68 33 -47 87 -8 vhcurveto
          -81 165 82 vlineto
          84 8 32 47 67 vvcurveto
          69 -164 -46 102 callsubr
          -17 hlineto
          -12 callgsubr
          17 8 -7 -15 hvcurveto
          -46 vlineto
          endchar
        </CharString>
        <CharString name="circumflex">
          3 40 532 190 callgsubr
        </CharString>
        <CharString name="colon">
          -245 40 335 rmoveto
          184 callgsubr
          -499 vmoveto
          184 callgsubr
          endchar
        </CharString>
        <CharString name="comma">
          225 callsubr
          endchar
        </CharString>
        <CharString name="copyright">
          275 742 338 rmoveto
          181 -53 123 -205 vhcurveto
          -196 hlineto
          -205 -53 -123 -181 hvcurveto
          -34 vlineto
          -181 53 -123 205 vhcurveto
          196 hlineto
          205 53 123 181 hvcurveto
          -421 -205 rmoveto
          -109 -52 28 159 hvcurveto
          70 vlineto
          159 52 28 -11 callgsubr
          130 hlineto
          109 52 -28 -159 hvcurveto
          -70 vlineto
          -159 -52 -28 -109 vhcurveto
          -38 161 rmoveto
          -10 -6 -5 -11 vhcurveto
          -18 hlineto
          -12 -5 5 10 hvcurveto
          123 vlineto
          10 5 5 12 vhcurveto
          18 hlineto
          11 6 -5 -10 hvcurveto
          -33 117 53 vlineto
          51 -28 34 -73 vhcurveto
          -84 hlineto
          -74 -27 -34 -51 hvcurveto
          -163 vlineto
          -51 27 -34 74 vhcurveto
          84 hlineto
          73 28 34 51 hvcurveto
          54 -117 vlineto
          endchar
        </CharString>
        <CharString name="currency">
          98 280 198 rmoveto
          -52 -25 9 67 hvcurveto
          51 vlineto
          67 25 10 52 vhcurveto
          15 hlineto
          51 26 -10 -67 hvcurveto
          -51 vlineto
          -67 -26 -9 -51 vhcurveto
          213 128 rmoveto
          42 -5 37 -14 29 vhcurveto
          51 51 -101 102 -77 -77 rlineto
          1 -11 -12 1 -13 hhcurveto
          -75 hlineto
          -14 -14 -1 -1 -12 hvcurveto
          -78 77 -101 -102 54 -54 rlineto
          -12 -29 -5 -35 -41 vvcurveto
          -52 vlineto
          -34 3 -30 9 -26 vhcurveto
          -49 -49 101 -102 61 61 rlineto
          -3 17 19 -2 21 hhcurveto
          75 hlineto
          19 18 1 3 16 hvcurveto
          60 -60 101 102 -45 45 rlineto
          9 27 4 31 36 vvcurveto
          endchar
        </CharString>
        <CharString name="d">
          -18 213 callgsubr
          544 rmoveto
          -224 vlineto
          131 callsubr
          669 vlineto
          endchar
        </CharString>
        <CharString name="dagger">
          -43 444 490 rmoveto
          296 callsubr
          -484 175 484 130 hlineto
          endchar
        </CharString>
        <CharString name="daggerdbl">
          -13 459 375 rmoveto
          115 296 callsubr
          -245 -129 -115 129 -152 175 318 callsubr
          115 -130 245 vlineto
          endchar
        </CharString>
        <CharString name="danda">
          -87 290 674 301 callsubr
          endchar
        </CharString>
        <CharString name="dcaron">
          23 213 callgsubr
          320 rmoveto
          131 callsubr
          669 -170 vlineto
          210 hmoveto
          324 callsubr
          endchar
        </CharString>
        <CharString name="dcroat">
          -13 230 224 callsubr
          247 497 rmoveto
          -50 47 -170 -47 -60 -75 60 -102 hlineto
          131 callsubr
          547 50 vlineto
          endchar
        </CharString>
        <CharString name="degree">
          -13 444 518 rmoveto
          75 -35 49 -107 vhcurveto
          -120 hlineto
          -107 -35 -49 -75 hvcurveto
          -91 vlineto
          -75 35 -49 107 vhcurveto
          120 hlineto
          107 35 49 75 hvcurveto
          -158 3 -5 callsubr
          -38 -58 callgsubr
          85 -54 callsubr
          38 -64 callsubr
          endchar
        </CharString>
        <CharString name="dieresis">
          3 54 542 144 callgsubr
          endchar
        </CharString>
        <CharString name="divide">
          36 25 257 303 callgsubr
          160 155 rmoveto
          -115 163 115 vlineto
          -163 -320 rmoveto
          -115 163 115 vlineto
          endchar
        </CharString>
        <CharString name="dollar">
          -6 230 378 249 callgsubr
          95 -54 callsubr
          29 -64 callsubr
          -54 175 77 vlineto
          71 -35 48 -96 5 vhcurveto
          85 -166 -85 vlineto
          -96 -4 -36 -48 -72 vvcurveto
          -132 vlineto
          -75 31 -51 104 vhcurveto
          96 -64 callsubr
          -91 vlineto
          308 callsubr
          54 -175 -77 vlineto
          -71 36 -48 94 -5 vhcurveto
          -84 166 84 vlineto
          97 4 36 48 72 vvcurveto
          132 vlineto
          75 -33 47 -104 vhcurveto
          endchar
        </CharString>
        <CharString name="dotaccent">
          3 169 542 326 callgsubr
        </CharString>
        <CharString name="dotlessi">
          179 callgsubr
          endchar
        </CharString>
        <CharString name="dottedcircle">
          163 139 517 rmoveto
          -26 18 -19 26 26 18 19 26 25 -18 19 -26 -26 -18 -19 -25 vhcurveto
          -82 -110 rmoveto
          -25 20 -19 26 24 20 19 25 25 -20 19 -24 -26 -20 -19 -25 vhcurveto
          -13 -126 rmoveto
          -25 19 -18 25 26 18 18 323 callgsubr
          52 -116 rmoveto
          -26 18 -18 26 25 19 18 26 25 -19 19 -25 -26 -18 -19 -25 vhcurveto
          101 -75 rmoveto
          -26 19 -20 26 25 19 20 26 24 -19 20 -25 -26 -19 -20 -24 vhcurveto
          127 -16 rmoveto
          -26 18 -18 26 26 19 18 26 26 -19 18 -26 -26 -18 -18 -26 vhcurveto
          121 53 rmoveto
          -26 19 -18 25 25 20 18 26 25 -20 19 -25 -25 -19 -19 -25 vhcurveto
          73 98 rmoveto
          -25 19 -19 26 24 19 19 25 26 -19 19 -24 -26 -19 -19 -26 vhcurveto
          10 134 rmoveto
          -26 18 -18 26 25 19 18 26 26 -19 18 -25 -26 -18 -18 -26 vhcurveto
          -50 118 rmoveto
          -25 19 -19 25 26 18 19 323 callgsubr
          -95 68 rmoveto
          -24 19 -20 26 25 18 20 24 26 -18 19 -25 -26 -19 -19 -26 vhcurveto
          -126 15 rmoveto
          -26 18 -18 26 26 18 18 26 26 -18 18 -26 -26 -18 -18 -26 vhcurveto
          endchar
        </CharString>
        <CharString name="doubledanda">
          153 290 674 301 callsubr
          240 706 301 callsubr
          endchar
        </CharString>
        <CharString name="dvA">
          291 callsubr
          -230 -35 callsubr
          60 vlineto
          endchar
        </CharString>
        <CharString name="dvAA">
          292 callgsubr
          -480 -43 callsubr
          endchar
        </CharString>
        <CharString name="dvAI">
          15 532 642 rmoveto
          -62 216 callsubr
          -324 46 callsubr
        </CharString>
        <CharString name="dvAU">
          292 callgsubr
          -61 hlineto
          -14 201 246 callgsubr
          -200 hlineto
          117 -98 53 -45 32 -25 54 -33 rlinecurve
          -248 -43 callsubr
          endchar
        </CharString>
        <CharString name="dvAbbreviationsign">
          -100 50 319 rmoveto
          -100 58 -49 90 90 59 49 100 100 -59 49 -90 -90 -58 -49 -100 vhcurveto
          117 hmoveto
          45 9 11 22 22 10 -11 -45 -45 -12 -11 -20 -20 -11 11 45 vhcurveto
          endchar
        </CharString>
        <CharString name="dvAcandra">
          291 callsubr
          -230 -35 callsubr
          60 vlineto
          -18 358 57 callsubr
        </CharString>
        <CharString name="dvAnusvara">
          -497 -181 857 96 callgsubr
        </CharString>
        <CharString name="dvAnusvara.amI">
          -497 30 787 96 callgsubr
        </CharString>
        <CharString name="dvAvagraha">
          -35 394 539 rmoveto
          103 -218 211 callgsubr
          -132 vlineto
          -87 callgsubr
          63 -74 callgsubr
          -153 -79 callgsubr
          -22 133 callgsubr
          36 -170 -52 vlineto
          -73 31 -34 179 callsubr
          34 73 hvcurveto
          185 vlineto
          73 -31 34 -109 vhcurveto
          -63 -91 callgsubr
          100 -82 callsubr
          endchar
        </CharString>
        <CharString name="dvB">
          -170 392 642 rmoveto
          -412 -113 412 hlineto
          -231 -451 rmoveto
          231 110 hlineto
          0 -64 87 -24 callsubr
          -160 vlineto
          -93 45 -5 callgsubr
          39 137 rmoveto
          117 vlineto
          -49 callsubr
          endchar
        </CharString>
        <CharString name="dvBA">
          80 200 246 callsubr
          -617 -113 387 -204 hlineto
          154 callgsubr
        </CharString>
        <CharString name="dvBH">
          9 278 215 99 callgsubr
          348 113 rmoveto
          -178 90 -73 callsubr
          -74 -98 77 callgsubr
          178 vlineto
          endchar
        </CharString>
        <CharString name="dvBHA">
          239 278 215 48 callgsubr
          -98 vlineto
          -109 -31 -34 -73 hvcurveto
          -128 vlineto
          110 callsubr
        </CharString>
        <CharString name="dvBH_LA">
          714 241 callgsubr
          953 313 rmoveto
          -715 -113 485 -57 70 callsubr
          -44 -33 -9 -21 -22 hvcurveto
          -100 88 -73 callsubr
          -72 121 callsubr
          -130 177 callsubr
          68 -222 vlineto
          -87 callgsubr
          135 callsubr
          202 240 callsubr
          42 callgsubr
          hlineto
          endchar
        </CharString>
        <CharString name="dvBH_NA">
          697 754 215 -93 callsubr
          -476 285 callgsubr
          72 -82 callsubr
          45 hlineto
          936 335 rmoveto
          -698 -113 468 -57 -328 hlineto
          -77 -38 -17 -35 -15 hvcurveto
          -78 110 -73 callsubr
          -94 121 callsubr
          -108 -102 callgsubr
          102 68 -102 23 callsubr
        </CharString>
        <CharString name="dvBH_R">
          72 356 -80 rmoveto
          233 236 rlineto
          160 vlineto
          -393 -396 rlineto
          82 370 -100 callsubr
          24 -82 callsubr
          45 hlineto
          170 113 rmoveto
          83 vlineto
          -76 callsubr
          -67 169 callsubr
          141 113 vlineto
          endchar
        </CharString>
        <CharString name="dvBH_RA">
          239 278 290 -100 callsubr
          24 -82 callsubr
          45 hlineto
          478 308 rmoveto
          -230 -195 -78 83 -73 callsubr
          -67 -98 vlineto
          -109 -31 -34 -73 hvcurveto
          -60 188 callsubr
        </CharString>
        <CharString name="dvBH_R_YA">
          617 904 114 callsubr
          39 0 callsubr
          -626 -239 -100 callsubr
          19 -82 callsubr
          45 hlineto
          856 313 rmoveto
          307 callsubr
          114 hlineto
          -62 callgsubr
          -33 -79 callgsubr
          -203 88 -73 callsubr
          -72 121 callsubr
          -55 -102 callgsubr
          49 78 -77 vlineto
          -330 -332 rlineto
          160 hlineto
          198 196 rlineto
          -27 26 44 -11 63 -29 callgsubr
        </CharString>
        <CharString name="dvBH_VA">
          474 241 callgsubr
          713 313 rmoveto
          -475 -113 245 45 callsubr
          -58 -36 -10 -20 -21 hvcurveto
          -93 88 -73 callsubr
          -72 121 callsubr
          -130 177 callsubr
          68 -124 -2 callgsubr
        </CharString>
        <CharString name="dvBH_YA">
          607 894 -61 callsubr
          100 -66 callgsubr
          53 0 callsubr
          -616 -314 189 callsubr
          846 327 rmoveto
          307 callsubr
          114 hlineto
          26 8 -8 -26 303 callsubr
          -193 102 -73 callsubr
          -86 121 callsubr
          -116 -102 callgsubr
          110 68 -110 vlineto
          -89 callgsubr
        </CharString>
        <CharString name="dvB_BA">
          417 537 332 rmoveto
          -49 callsubr
          -337 117 rmoveto
          -49 callsubr
          734 427 rmoveto
          -954 -113 724 233 callgsubr
          -91 vlineto
          -19 6 -33 -45 callsubr
          170 hlineto
          35 23 9 18 13 hvcurveto
          -19 22 32 -8 42 hhcurveto
          170 hlineto
          15 12 2 3 9 hvcurveto
          -83 -94 callsubr
        </CharString>
        <CharString name="dvB_BHA">
          566 194 callsubr
          280 175 callsubr
          -405 5 rmoveto
          -49 callsubr
          883 427 55 callsubr
          121 callsubr
          -59 vlineto
          164 callsubr
          314 callgsubr
          -327 -94 callsubr
        </CharString>
        <CharString name="dvB_BH_RA">
          566 194 callsubr
          280 -239 -100 callsubr
          24 -82 callsubr
          45 hlineto
          -405 -2 rmoveto
          -49 callsubr
          883 427 rmoveto
          -230 -195 -78 83 -73 callsubr
          -67 121 callsubr
          -66 vlineto
          -19 6 -33 -45 callsubr
          230 hlineto
          52 40 28 48 17 hvcurveto
          -1 9 9 0 10 hhcurveto
          125 callsubr
        </CharString>
        <CharString name="dvB_DA">
          318 200 332 rmoveto
          -49 callsubr
          635 427 rmoveto
          -855 -113 625 239 callgsubr
          -40 47 callsubr
          170 hlineto
          36 23 10 18 13 279 callgsubr
          59 hhcurveto
          -32 callgsubr
        </CharString>
        <CharString name="dvB_DHA">
          426 194 callsubr
          -125 -197 rmoveto
          -49 callsubr
          750 427 rmoveto
          159 callsubr
          -304 50 callgsubr
          143 -96 callsubr
        </CharString>
        <CharString name="dvB_DH_VA">
          678 194 callsubr
          -125 -197 rmoveto
          -49 callsubr
          995 427 rmoveto
          -477 -113 247 47 callgsubr
          -140 50 callgsubr
          156 hlineto
          35 23 10 17 13 hvcurveto
          -19 22 32 -8 42 24 callsubr
        </CharString>
        <CharString name="dvB_JA">
          558 223 191 194 callgsubr
          48 -59 rcurveline
          -3 -1 -1 -6 vhcurveto
          772 451 rmoveto
          -1095 -113 865 -57 260 callsubr
          -147 47 callsubr
          187 hlineto
          31 17 10 17 8 hvcurveto
          -19 26 40 -8 58 hhcurveto
          86 265 callgsubr
        </CharString>
        <CharString name="dvB_JHA">
          565 853 305 rmoveto
          -280 135 callgsubr
          89 hlineto
          -620 -416 119 callgsubr
          174 vlineto
          12 -36 13 -25 20 -37 51 -96 rcurveline
          -3 -1 -1 -6 vhcurveto
          783 529 rmoveto
          -1102 -113 614 -57 -74 hlineto
          -106 callsubr
          -56 vlineto
          -87 callgsubr
          69 -74 callgsubr
          -59 67 callgsubr
          -55 hlineto
          -132 259 rlineto
          67 103 -144 249 callsubr
          -218 vlineto
          -93 45 -5 callgsubr
          164 hlineto
          20 15 5 9 10 hvcurveto
          -76 170 62 92 vlineto
          109 31 34 73 hvcurveto
          73 vlineto
          8 -1 320 callgsubr
          72 -202 152 callsubr
        </CharString>
        <CharString name="dvB_J_YA">
          936 1223 114 callsubr
          39 0 callsubr
          -1000 -338 194 callgsubr
          48 -59 rcurveline
          -3 -1 -1 -6 vhcurveto
          1150 451 rmoveto
          -1473 -113 979 hlineto
          -62 callgsubr
          -33 -79 callgsubr
          -365 193 callgsubr
          257 -170 -147 47 callsubr
          187 hlineto
          31 17 10 17 8 hvcurveto
          -19 26 195 callgsubr
          124 70 -124 vlineto
          -89 callgsubr
        </CharString>
        <CharString name="dvB_JxA">
          561 528 98 callsubr
          -328 332 rmoveto
          -49 callsubr
          878 427 rmoveto
          -1098 -113 868 264 callsubr
          -173 -147 47 callsubr
          177 hlineto
          32 23 8 15 14 hvcurveto
          -16 22 31 -7 38 hhcurveto
          119 265 callgsubr
        </CharString>
        <CharString name="dvB_LA">
          565 200 332 rmoveto
          -49 callsubr
          882 427 rmoveto
          -1102 -113 872 242 callsubr
          -20 vlineto
          81 callgsubr
          -56 callsubr
        </CharString>
        <CharString name="dvB_L_YA">
          943 1230 114 callsubr
          39 0 callsubr
          -1030 -197 rmoveto
          -49 callsubr
          1260 427 rmoveto
          -1480 -113 986 hlineto
          -62 callgsubr
          -33 -79 callgsubr
          -221 hlineto
          19 callgsubr
          -20 vlineto
          -44 6 -29 87 callgsubr
          197 callgsubr
          -124 hlineto
          -89 callgsubr
        </CharString>
        <CharString name="dvB_NA">
          548 605 215 -93 callsubr
          -405 -27 rmoveto
          -49 callsubr
          865 427 rmoveto
          -1085 -113 855 321 callgsubr
          -91 vlineto
          164 callsubr
          237 callsubr
          42 callgsubr
          vlineto
          endchar
        </CharString>
        <CharString name="dvB_R">
          -145 -20 642 rmoveto
          -113 392 113 vlineto
          -172 -427 rmoveto
          117 vlineto
          -49 callsubr
          -170 150 rmoveto
          -160 vlineto
          -93 45 -5 callgsubr
          36 hlineto
          -85 -138 rlineto
          169 hlineto
          91 143 rlineto
          130 vlineto
          -33 32 -11 30 -34 43 -41 51 rcurveline
          10 callgsubr
          endchar
        </CharString>
        <CharString name="dvB_RA">
          80 223 191 194 callgsubr
          50 -60 rcurveline
          -2 -1 -3 -1 -4 hhcurveto
          293 451 rmoveto
          -617 -113 387 -204 hlineto
          82 callgsubr
          20 hlineto
          -84 -138 rlineto
          179 hlineto
          91 154 rlineto
          -94 -88 callgsubr
          endchar
        </CharString>
        <CharString name="dvB_SA">
          537 824 363 rmoveto
          -70 hlineto
          -74 callsubr
          70 hlineto
          -624 -197 rmoveto
          -49 callsubr
          854 427 rmoveto
          -1074 -113 576 101 callgsubr
          -147 hlineto
          81 callgsubr
          -69 callgsubr
          80 -170 -64 -86 callgsubr
          127 287 -250 -94 callsubr
        </CharString>
        <CharString name="dvB_SHA">
          550 194 callsubr
          -125 -197 rmoveto
          -49 callsubr
          307 432 118 callsubr
          -81 hlineto
          81 callgsubr
          -69 callgsubr
          80 -170 -64 -86 callgsubr
          110 43 vlineto
          -20 callgsubr
          217 -5 rmoveto
          -642 126 callsubr
        </CharString>
        <CharString name="dvB_TA">
          323 200 332 rmoveto
          -49 callsubr
          640 427 rmoveto
          -860 -113 630 -57 -103 hlineto
          -106 callsubr
          -40 vlineto
          81 callgsubr
          -38 callsubr
        </CharString>
        <CharString name="dvB_VA">
          325 200 332 rmoveto
          -49 callsubr
          642 427 rmoveto
          -862 -113 632 47 callgsubr
          -40 47 callsubr
          177 hlineto
          32 23 8 15 14 hvcurveto
          -16 22 31 -7 38 24 callsubr
        </CharString>
        <CharString name="dvB_YA">
          458 745 204 callsubr
          -545 -197 rmoveto
          -49 callsubr
          775 427 rmoveto
          -995 -113 501 192 callgsubr
          -118 hlineto
          164 callsubr
          238 callgsubr
          -94 -88 callgsubr
          endchar
        </CharString>
        <CharString name="dvC">
          -248 214 335 rmoveto
          -79 callsubr
          23 113 -272 -113 73 hlineto
          167 callgsubr
          -93 45 -5 callgsubr
          194 113 -132 -107 callsubr
          -236 427 rmoveto
          -113 391 113 vlineto
          endchar
        </CharString>
        <CharString name="dvCA">
          2 519 642 rmoveto
          -541 -113 311 -314 hlineto
          -19 -8 -5 -15 vhcurveto
          -29 41 callgsubr
          61 hlineto
          27 16 5 11 10 hvcurveto
          -94 -88 callgsubr
          endchar
        </CharString>
        <CharString name="dvCH">
          204 721 245 callsubr
          -741 -113 60 vlineto
          25 callsubr
          305 210 callsubr
          238 vlineto
          84 -50 23 -93 vhcurveto
          -76 hlineto
          -93 -50 -23 -84 hvcurveto
          -67 callsubr
          endchar
        </CharString>
        <CharString name="dvCHA">
          204 399 470 33 callsubr
        </CharString>
        <CharString name="dvCH_R">
          -497 endchar
        </CharString>
        <CharString name="dvCH_RA">
          204 399 13 callsubr
          -741 -113 60 vlineto
          25 callsubr
          59 hlineto
          -94 -147 rlineto
          31 callsubr
          -93 147 rlineto
          41 92 callgsubr
        </CharString>
        <CharString name="dvCH_R_YA">
          18 callgsubr
          60 hlineto
          -94 -147 rlineto
          31 callsubr
          -93 147 rlineto
          40 210 callsubr
          251 vlineto
          1 193 vlineto
          -64 callgsubr
          -14 2 callgsubr
          -120 hlineto
          -89 callgsubr
        </CharString>
        <CharString name="dvCH_YA">
          18 callgsubr
          305 210 callsubr
          251 vlineto
          1 193 vlineto
          -64 callgsubr
          -14 2 callgsubr
          -120 hlineto
          -89 callgsubr
        </CharString>
        <CharString name="dvC_CA">
          252 769 642 rmoveto
          -791 -113 561 163 callgsubr
          -230 -113 31 hlineto
          180 callgsubr
          -80 176 callsubr
          -255 -113 73 hlineto
          167 callgsubr
          -93 45 -5 callgsubr
          81 hlineto
          33 24 12 19 12 hvcurveto
          -22 21 34 -9 45 24 callsubr
        </CharString>
        <CharString name="dvC_CHA">
          464 659 13 callsubr
          -1001 -113 320 122 callsubr
          -33 176 callsubr
          -255 -113 73 257 callgsubr
          -64 13 51 -24 93 hhcurveto
          305 92 callgsubr
        </CharString>
        <CharString name="dvC_CH_VA">
          454 649 -41 callsubr
          -91 -628 119 callgsubr
          41 vlineto
          26 8 8 26 vhcurveto
          91 -75 hlineto
          104 callsubr
          334 628 rmoveto
          113 -991 -113 310 122 callsubr
          -33 176 callsubr
          -250 -113 68 257 callgsubr
          12 -59 44 -25 80 -4 rrcurveto
          -6 -9 -3 -11 -15 vvcurveto
          -57 275 callsubr
          291 vlineto
          89 6 42 36 84 vvcurveto
          238 vlineto
          71 -35 27 -67 7 vhcurveto
          59 vlineto
          endchar
        </CharString>
        <CharString name="dvC_MA">
          493 780 432 201 callgsubr
          -1030 -113 552 217 callsubr
          -100 vlineto
          -26 -8 -8 -26 vhcurveto
          -23 41 callgsubr
          76 hlineto
          35 25 14 22 11 hvcurveto
          -26 24 42 -10 67 105 callsubr
        </CharString>
        <CharString name="dvC_NA">
          475 532 11 callsubr
          -1012 -113 782 321 callgsubr
          -140 vlineto
          -26 -8 -8 -26 vhcurveto
          -23 41 callgsubr
          76 hlineto
          35 25 14 22 11 hvcurveto
          -26 24 42 -10 67 58 callgsubr
        </CharString>
        <CharString name="dvC_R">
          -199 214 335 rmoveto
          203 callsubr
          122 206 rlineto
          65 -81 vlineto
          -104 callsubr
          -236 407 rmoveto
          -113 340 113 vlineto
          endchar
        </CharString>
        <CharString name="dvC_RA">
          2 519 642 rmoveto
          -541 -113 311 -294 hlineto
          -92 callsubr
          100 vlineto
          203 callsubr
          93 157 rlineto
          -97 -88 callgsubr
          endchar
        </CharString>
        <CharString name="dvC_YA">
          385 672 3 callgsubr
          -922 -113 428 192 callgsubr
          -167 hlineto
          -26 -8 -8 -26 vhcurveto
          -23 41 callgsubr
          76 hlineto
          37 25 15 23 10 hvcurveto
          -27 26 43 -11 63 -29 callgsubr
        </CharString>
        <CharString name="dvCandrabindu">
          -497 -372 104 callgsubr
          49 71 96 callgsubr
        </CharString>
        <CharString name="dvD">
          -23 264 hmoveto
          170 291 -170 -76 299 callgsubr
          120 225 callgsubr
          -71 callgsubr
          24 hlineto
          27 16 5 11 10 hvcurveto
          157 -155 215 callgsubr
        </CharString>
        <CharString name="dvDA">
          -23 494 642 rmoveto
          -528 -113 298 -57 -98 hlineto
          -109 -31 -34 -73 hvcurveto
          -160 1 callsubr
        </CharString>
        <CharString name="dvDA_mvR">
          -23 434 359 rmoveto
          170 60 113 -528 253 callgsubr
          -160 287 callgsubr
          -95 -10 vlineto
          130 callgsubr
          127 395 -170 -76 299 callgsubr
          120 -33 callsubr
          endchar
        </CharString>
        <CharString name="dvDD">
          -27 147 -61 43 callsubr
          -333 703 rmoveto
          90 callsubr
          180 318 callgsubr
          hlineto
          endchar
        </CharString>
        <CharString name="dvDDA">
          -27 407 369 78 callgsubr
        </CharString>
        <CharString name="dvDDH">
          20 187 -61 43 callsubr
          95 420 190 callsubr
          -238 vlineto
          -71 callgsubr
          125 -99 callsubr
          -23 callgsubr
          endchar
        </CharString>
        <CharString name="dvDDHA">
          20 448 359 190 callsubr
          -238 vlineto
          -71 callgsubr
          125 -99 callsubr
          -23 callgsubr
          endchar
        </CharString>
        <CharString name="dvDDH_DDHA">
          20 448 359 190 callsubr
          -248 vlineto
          -45 17 -17 30 -4 vhcurveto
          -5 vlineto
          -30 -4 -17 -18 -38 vvcurveto
          -149 vlineto
          -71 callgsubr
          116 -99 callsubr
          86 callgsubr
          175 -82 callsubr
          84 -99 callsubr
          86 callgsubr
          156 -33 callsubr
          endchar
        </CharString>
        <CharString name="dvDDH_R">
          20 167 -171 43 callsubr
          115 530 74 callgsubr
        </CharString>
        <CharString name="dvDDH_RA">
          20 448 359 74 callgsubr
        </CharString>
        <CharString name="dvDDH_VA">
          21 294 42 rmoveto
          -89 vlineto
          -23 -10 -6 -18 vhcurveto
          -16 hlineto
          -18 -10 6 23 hvcurveto
          89 vlineto
          226 317 rmoveto
          170 90 113 -558 253 callgsubr
          -216 vlineto
          -32 6 -25 16 -17 vhcurveto
          -147 vlineto
          -87 callgsubr
          29 178 callsubr
          351 vlineto
          17 20 7 28 39 vvcurveto
          86 callgsubr
          156 -33 callsubr
          endchar
        </CharString>
        <CharString name="dvDDH_YA">
          638 925 205 88 callsubr
          -274 64 477 hlineto
          2 callsubr
          -1175 148 callgsubr
          -238 vlineto
          -71 callgsubr
          125 -99 callsubr
          -23 callgsubr
          437 53 callsubr
          -74 -94 callsubr
        </CharString>
        <CharString name="dvDDHxA">
          20 202 -183 -31 callsubr
          246 413 190 callsubr
          -238 vlineto
          -71 callgsubr
          125 -99 callsubr
          -23 callgsubr
          endchar
        </CharString>
        <CharString name="dvDD_DDA">
          108 callsubr
          -23 vlineto
          -54 22 -33 103 vhcurveto
          114 hlineto
          15 8 -6 -14 hvcurveto
          -23 vlineto
          -14 -8 -6 -15 vhcurveto
          -52 133 callgsubr
          11 -170 -27 vlineto
          -87 callgsubr
          152 286 callgsubr
          -99 -91 callgsubr
          23 197 callsubr
        </CharString>
        <CharString name="dvDD_DDHA">
          108 callsubr
          -149 vlineto
          -71 callgsubr
          116 -99 callsubr
          86 callgsubr
          175 197 callsubr
        </CharString>
        <CharString name="dvDD_R">
          -27 147 -171 43 callsubr
          -333 813 8 callgsubr
          -64 24 -34 79 -7 vhcurveto
          -95 -149 281 callsubr
          74 9 22 34 62 vvcurveto
          76 callgsubr
          83 308 callgsubr
        </CharString>
        <CharString name="dvDD_RA">
          -27 407 274 callgsubr
          -510 -35 callgsubr
          -64 24 -34 79 -7 vhcurveto
          -95 -149 281 callsubr
          74 9 22 34 62 vvcurveto
          -26 callsubr
          endchar
        </CharString>
        <CharString name="dvDD_VA">
          3 290 -73 rmoveto
          208 callgsubr
          37 hlineto
          14 9 1 3 9 hvcurveto
          147 365 293 callsubr
          -540 -113 287 -57 -93 vlineto
          66 callgsubr
          93 -74 callgsubr
          -60 -79 callgsubr
          -52 133 callgsubr
          36 -170 -92 -59 callsubr
          -43 165 callsubr
          489 vlineto
          73 -31 34 -109 vhcurveto
          -93 -91 callgsubr
          23 -82 callsubr
          endchar
        </CharString>
        <CharString name="dvDD_YA">
          581 868 215 88 callsubr
          -258 54 461 hlineto
          2 callsubr
          -1118 -113 257 -57 -63 hlineto
          -109 -31 -34 -73 hvcurveto
          -55 vlineto
          -73 31 -34 109 vhcurveto
          127 callgsubr
          388 53 callsubr
          -84 170 vlineto
          -3 529 rlineto
          63 hlineto
          endchar
        </CharString>
        <CharString name="dvDDxA">
          -27 169 -194 -31 callsubr
          238 434 78 callgsubr
        </CharString>
        <CharString name="dvDH">
          -78 220 427 rmoveto
          87 -65 callsubr
          -136 vlineto
          -37 17 -15 30 -4 vhcurveto
          191 callsubr
          373 113 -310 -32 callsubr
          endchar
        </CharString>
        <CharString name="dvDHA">
          109 633 642 rmoveto
          159 callsubr
          -304 89 callsubr
          174 -96 callsubr
        </CharString>
        <CharString name="dvDH_MA">
          629 916 432 rmoveto
          -105 97 105 hlineto
          -275 -72 callsubr
          505 323 rmoveto
          -743 -113 238 217 callsubr
          -100 89 callsubr
          204 hlineto
          31 17 10 17 8 hvcurveto
          -19 26 195 callgsubr
          114 105 -319 -94 callsubr
        </CharString>
        <CharString name="dvDH_NA">
          584 641 11 callsubr
          -699 hlineto
          1 -113 rlineto
          468 321 callgsubr
          -140 89 callsubr
          204 125 callgsubr
        </CharString>
        <CharString name="dvDH_N_YA">
          972 1259 -15 callsubr
          848 310 rmoveto
          -1086 -113 592 hlineto
          -62 callgsubr
          -30 -79 callgsubr
          -463 hlineto
          -106 callsubr
          -113 89 callsubr
          204 hlineto
          31 17 10 17 8 hvcurveto
          -19 26 195 callgsubr
          127 70 -127 vlineto
          -89 callgsubr
        </CharString>
        <CharString name="dvDH_R">
          -95 243 211 119 callgsubr
          37 vlineto
          -13 callgsubr
          81 -65 callsubr
          -130 -59 callsubr
          -89 vlineto
          294 callsubr
          66 hlineto
          -96 -158 320 callsubr
          vlineto
          endchar
        </CharString>
        <CharString name="dvDH_RA">
          109 633 642 rmoveto
          159 callsubr
          272 callgsubr
          -137 -107 callsubr
          37 vlineto
          -13 callgsubr
          81 -65 callsubr
          -130 -59 callsubr
          -89 vlineto
          294 callsubr
          66 hlineto
          265 callsubr
        </CharString>
        <CharString name="dvDH_VA">
          358 875 642 rmoveto
          -472 -113 245 47 callgsubr
          -140 89 callsubr
          204 hlineto
          30 17 10 16 9 hvcurveto
          -18 22 31 -8 41 297 callgsubr
          57 vlineto
          endchar
        </CharString>
        <CharString name="dvDH_YA">
          494 781 3 callgsubr
          307 callsubr
          114 192 callgsubr
          -167 hlineto
          15 callgsubr
          204 hlineto
          32 17 11 18 8 hvcurveto
          -20 27 40 -9 56 -29 callgsubr
        </CharString>
        <CharString name="dvD_BA">
          51 280 callsubr
          -144 -146 rmoveto
          -18 -10 5 20 hvcurveto
          91 vlineto
          3 vlineto
          113 -119 rlineto
          274 675 185 callgsubr
          119 178 callsubr
          523 -170 -59 vlineto
          104 callsubr
          -96 -107 callsubr
          93 -33 callsubr
          287 170 60 hlineto
          endchar
        </CharString>
        <CharString name="dvD_BHA">
          197 208 158 rmoveto
          45 callgsubr
          -40 -113 24 20 callgsubr
          -295 152 67 231 113 -231 vlineto
          506 609 rmoveto
          -734 -113 504 239 callgsubr
          -160 287 callgsubr
          -174 170 371 -170 -76 149 callgsubr
          120 20 callsubr
        </CharString>
        <CharString name="dvD_B_RA">
          103 280 callsubr
          -172 -30 rmoveto
          3 vlineto
          113 -119 rlineto
          -85 hlineto
          -18 -10 5 20 hvcurveto
          387 650 185 callgsubr
          11 hlineto
          -126 -135 rlineto
          148 hlineto
          139 151 rlineto
          -106 170 523 -170 -59 vlineto
          104 callsubr
          -96 -107 callsubr
          93 -33 callsubr
          287 170 60 hlineto
          endchar
        </CharString>
        <CharString name="dvD_DA">
          -23 414 359 rmoveto
          170 80 113 -528 -113 278 -57 -112 vlineto
          -89 -41 -32 -74 hvcurveto
          -60 -59 callsubr
          -60 167 callsubr
          79 136 callgsubr
          291 -170 315 callgsubr
          -76 -107 callsubr
          7 -86 callsubr
          59 113 -59 -107 callsubr
          11 -82 callsubr
          endchar
        </CharString>
        <CharString name="dvD_DHA">
          264 180 80 rmoveto
          -13 callgsubr
          11 -82 callsubr
          69 113 -102 187 callsubr
          601 569 rmoveto
          -801 -113 571 -44 101 callsubr
          -168 vlineto
          151 callgsubr
        </CharString>
        <CharString name="dvD_GA">
          123 callgsubr
          -50 12 -33 30 -20 vhcurveto
          -163 284 callgsubr
          157 13 vlineto
          27 16 5 11 10 hvcurveto
          -288 150 485 222 callsubr
        </CharString>
        <CharString name="dvD_GHA">
          264 781 642 rmoveto
          -801 -113 571 -44 -98 hlineto
          -105 -33 -32 -68 -2 hvcurveto
          -143 187 callsubr
          7 vlineto
          -13 callgsubr
          11 -82 callsubr
          110 -62 hlineto
          151 callgsubr
        </CharString>
        <CharString name="dvD_G_RA">
          123 callgsubr
          -50 12 -33 30 -20 vhcurveto
          -103 284 callgsubr
          97 13 vlineto
          27 16 5 11 10 hvcurveto
          -134 vlineto
          -273 -250 rlineto
          146 hlineto
          127 114 rlineto
          -78 150 545 222 callsubr
        </CharString>
        <CharString name="dvD_MA">
          225 512 187 rmoveto
          -78 104 -170 -46 299 callgsubr
          90 324 callgsubr
          78 hlineto
          2 callsubr
          -762 -113 284 239 callgsubr
          -130 287 callgsubr
          -124 170 74 78 -74 -94 callsubr
        </CharString>
        <CharString name="dvD_NA">
          123 callgsubr
          -71 callgsubr
          44 hlineto
          27 16 5 11 10 hvcurveto
          -87 -98 vlineto
          -74 -41 -26 -81 hvcurveto
          -57 vlineto
          120 -1 rlineto
          41 -86 callsubr
          70 -121 150 505 -150 -76 hlineto
          104 callsubr
          -42 -107 callsubr
          120 20 callsubr
        </CharString>
        <CharString name="dvD_R">
          -23 264 hmoveto
          170 291 -170 -56 299 callgsubr
          100 225 callgsubr
          -56 21 -34 45 -12 vhcurveto
          -100 313 callgsubr
          93 157 rlineto
          157 -158 215 callgsubr
        </CharString>
        <CharString name="dvD_RA">
          123 callgsubr
          65 callsubr
        </CharString>
        <CharString name="dvD_VA">
          1 256 68 rmoveto
          14 9 1 3 9 hvcurveto
          -77 vlineto
          208 callgsubr
          299 574 rmoveto
          -552 -113 322 -57 -122 hlineto
          -106 callsubr
          -223 120 callgsubr
        </CharString>
        <CharString name="dvD_YA">
          131 396 202 rmoveto
          -17 -71 callsubr
          -140 -53 callgsubr
          17 hvcurveto
          13 vlineto
          18 8 4 15 vhcurveto
          69 103 -69 hlineto
          -15 -8 4 17 hvcurveto
          12 vlineto
          14 8 4 15 vhcurveto
          95 138 68 hlineto
          2 callsubr
          -622 -113 172 -44 -6 hlineto
          -89 -41 -29 -67 hvcurveto
          -48 vlineto
          -33 17 -14 30 -3 vhcurveto
          -5 vlineto
          -30 -4 -17 -13 -34 vvcurveto
          -61 vlineto
          -67 41 -29 89 vhcurveto
          173 hlineto
          27 16 5 9 10 hvcurveto
          164 callgsubr
        </CharString>
        <CharString name="dvE">
          15 532 642 rmoveto
          -552 46 callsubr
        </CharString>
        <CharString name="dvEcandra">
          15 362 675 rmoveto
          114 38 34 65 hvcurveto
          93 -140 77 callsubr
          366 -33 rmoveto
          -552 46 callsubr
        </CharString>
        <CharString name="dvEight">
          51 callsubr
        </CharString>
        <CharString name="dvEyelash">
          -146 371 392 rmoveto
          -69 277 callsubr
          119 hlineto
          -391 363 rmoveto
          -113 391 113 vlineto
          endchar
        </CharString>
        <CharString name="dvEyelash_HA">
          206 723 642 rmoveto
          -743 -113 513 -57 -98 hlineto
          -104 -29 -30 -67 -5 hvcurveto
          -47 -91 callgsubr
          57 -162 -73 vlineto
          -73 26 -44 -11 callgsubr
          142 -5 hlineto
          40 callgsubr
          hlineto
          endchar
        </CharString>
        <CharString name="dvEyelash_YA">
          241 528 3 callgsubr
          -778 -113 284 hlineto
          -62 callgsubr
          -83 -79 callgsubr
          -80 277 callsubr
          5 -74 hlineto
          -89 callgsubr
        </CharString>
        <CharString name="dvFive">
          122 callgsubr
        </CharString>
        <CharString name="dvFour">
          185 callsubr
        </CharString>
        <CharString name="dvG">
          -26 223 191 -66 callsubr
          255 451 rmoveto
          -516 -113 -75 callsubr
          60 vlineto
          endchar
        </CharString>
        <CharString name="dvGA">
          229 223 191 -66 callsubr
          505 451 rmoveto
          -766 -113 -75 callsubr
          132 callsubr
        </CharString>
        <CharString name="dvGH">
          -215 412 245 callsubr
          -432 -113 66 vlineto
          203 callgsubr
          -86 -59 callsubr
          -96 vlineto
          -36 callgsubr
          211 113 -179 -107 callsubr
          64 108 callgsubr
          113 -33 -107 callsubr
          55 vlineto
          26 8 8 26 vhcurveto
          endchar
        </CharString>
        <CharString name="dvGHA">
          35 322 187 callgsubr
          2 callsubr
          -572 -113 66 hlineto
          203 callgsubr
          -86 -59 callsubr
          -96 vlineto
          -36 callgsubr
          72 -96 callsubr
        </CharString>
        <CharString name="dvGH_MA">
          521 808 -62 callsubr
          -238 -94 rmoveto
          -51 callgsubr
          -55 -107 callsubr
          64 108 callgsubr
          113 -33 -107 callsubr
          55 vlineto
          26 8 8 26 vhcurveto
          316 217 callsubr
          716 317 rmoveto
          -1058 -113 66 hlineto
          203 callgsubr
          -86 -59 callsubr
          -96 vlineto
          -36 callgsubr
          83 hlineto
          34 24 12 20 11 hvcurveto
          -22 25 41 -10 64 105 callsubr
        </CharString>
        <CharString name="dvGH_NA">
          493 790 472 rmoveto
          238 callsubr
          -140 vlineto
          -51 callgsubr
          -55 -107 callsubr
          64 108 callgsubr
          113 -33 -107 callsubr
          55 vlineto
          26 8 8 26 vhcurveto
          546 hlineto
          26 callgsubr
          460 283 rmoveto
          -1040 -113 66 hlineto
          203 callgsubr
          -86 -59 callsubr
          -96 vlineto
          -36 callgsubr
          83 hlineto
          34 24 12 20 11 hvcurveto
          -22 25 41 -10 64 58 callgsubr
        </CharString>
        <CharString name="dvGH_R">
          -163 354 245 callsubr
          -374 -113 66 vlineto
          203 callgsubr
          -86 -59 callsubr
          -96 vlineto
          -72 34 -34 75 -1 vhcurveto
          -96 -158 320 callsubr
          -121 vlineto
          -104 callsubr
          44 108 callgsubr
          113 -33 -107 callsubr
          55 vlineto
          26 8 8 26 vhcurveto
          endchar
        </CharString>
        <CharString name="dvGH_RA">
          37 324 235 rmoveto
          104 callsubr
          -68 -107 callsubr
          44 108 callgsubr
          113 -33 -107 callsubr
          55 vlineto
          26 8 8 26 vhcurveto
          80 hlineto
          2 callsubr
          -574 -113 66 hlineto
          203 callgsubr
          -86 -59 callsubr
          -96 vlineto
          -72 34 -34 74 -1 vhcurveto
          265 callsubr
        </CharString>
        <CharString name="dvGH_YA">
          413 700 142 callsubr
          -55 -107 callsubr
          64 108 callgsubr
          113 -33 -107 callsubr
          55 vlineto
          26 8 8 26 vhcurveto
          192 183 callgsubr
          -950 -113 66 hlineto
          203 callgsubr
          -86 -59 callsubr
          -96 vlineto
          -36 callgsubr
          83 hlineto
          35 25 13 21 10 hvcurveto
          -24 26 43 -10 60 -29 callgsubr
        </CharString>
        <CharString name="dvG_BA">
          561 681 332 rmoveto
          -49 callsubr
          -458 -24 -66 callsubr
          837 451 rmoveto
          -1098 -113 -75 callsubr
          412 -204 vlineto
          154 callgsubr
        </CharString>
        <CharString name="dvG_BHA">
          710 223 191 -66 callsubr
          -261 338 rmoveto
          -75 callsubr
          50 113 -506 vlineto
          769 -427 48 callgsubr
          -98 vlineto
          -109 -31 -34 -73 hvcurveto
          -128 vlineto
          110 callsubr
        </CharString>
        <CharString name="dvG_BH_YA">
          1088 223 191 -66 callsubr
          -261 338 rmoveto
          -75 callsubr
          50 113 -506 vlineto
          1385 -417 -68 callsubr
          100 -66 callgsubr
          53 0 callsubr
          -616 -314 189 callsubr
          846 327 rmoveto
          307 callsubr
          114 hlineto
          26 8 -8 -26 303 callsubr
          -193 102 -73 callsubr
          -86 121 callsubr
          -116 -102 callgsubr
          110 68 -110 vlineto
          -89 callgsubr
        </CharString>
        <CharString name="dvG_DA">
          455 223 191 -66 callsubr
          731 451 rmoveto
          -992 -113 -75 callsubr
          306 290 callgsubr
          -160 1 callsubr
        </CharString>
        <CharString name="dvG_DHA">
          575 223 191 -66 callsubr
          -261 338 rmoveto
          -75 callsubr
          54 113 -510 vlineto
          1119 hmoveto
          159 callsubr
          -304 89 callsubr
          174 -96 callsubr
        </CharString>
        <CharString name="dvG_DH_VA">
          827 223 191 -66 callsubr
          -261 338 rmoveto
          -75 callsubr
          54 113 -510 vlineto
          1364 hmoveto
          -475 -113 245 81 callsubr
          -140 89 callsubr
          198 hlineto
          31 22 8 14 13 hvcurveto
          -15 22 30 -7 38 24 callsubr
        </CharString>
        <CharString name="dvG_DH_YA">
          960 223 191 -66 callsubr
          -261 338 rmoveto
          -75 callsubr
          54 113 -510 vlineto
          1267 -417 30 callgsubr
          307 callsubr
          114 192 callgsubr
          -167 hlineto
          15 callgsubr
          198 hlineto
          33 23 9 16 13 hvcurveto
          -17 26 39 -8 52 -29 callgsubr
        </CharString>
        <CharString name="dvG_GA">
          695 689 191 -66 callsubr
          -484 hmoveto
          -89 callsubr
          113 vlineto
          26 5 5 26 vhcurveto
          37 -144 hlineto
          -84 callsubr
          971 451 rmoveto
          -1232 -113 -75 callsubr
          296 -57 -58 vlineto
          -68 callgsubr
          132 callsubr
        </CharString>
        <CharString name="dvG_GHA">
          497 796 187 callgsubr
          -573 -338 -66 callsubr
          785 451 rmoveto
          -1046 -113 -75 callsubr
          84 vlineto
          203 callgsubr
          -86 -59 callsubr
          -96 vlineto
          -36 callgsubr
          72 -96 callsubr
        </CharString>
        <CharString name="dvG_JA">
          695 223 191 -66 callsubr
          979 451 rmoveto
          -1240 -113 -75 callsubr
          554 -57 -240 -257 vlineto
          171 callsubr
          -170 -267 152 callgsubr
        </CharString>
        <CharString name="dvG_LA">
          709 223 191 -66 callsubr
          985 451 rmoveto
          -1246 -113 -75 callsubr
          560 -57 -96 vlineto
          -106 callgsubr
          47 42 callgsubr
          hlineto
          endchar
        </CharString>
        <CharString name="dvG_MA">
          710 997 -62 callsubr
          -526 -128 -66 callsubr
          986 451 rmoveto
          -1247 -113 -75 callsubr
          313 -97 121 callsubr
          -120 24 callgsubr
        </CharString>
        <CharString name="dvG_NA">
          692 749 215 -93 callsubr
          -526 -168 -66 callsubr
          968 451 rmoveto
          -1229 -113 -75 callsubr
          543 -57 -328 vlineto
          202 callgsubr
        </CharString>
        <CharString name="dvG_NNA">
          705 742 215 14 callsubr
          -519 -338 -66 callsubr
          981 451 rmoveto
          -1242 -113 -75 callsubr
          68 -324 -102 callgsubr
          324 132 callsubr
        </CharString>
        <CharString name="dvG_N_YA">
          1075 1362 -15 callsubr
          -521 -141 -66 callsubr
          1351 451 rmoveto
          -1612 -113 -75 callsubr
          662 221 callgsubr
          -30 -79 callgsubr
          -463 hlineto
          -106 callsubr
          -133 -102 callgsubr
          127 70 -127 vlineto
          -89 callgsubr
        </CharString>
        <CharString name="dvG_R">
          103 346 -80 rmoveto
          218 219 rlineto
          161 vlineto
          -378 -380 rlineto
          37 351 139 callgsubr
          -261 371 rmoveto
          260 callgsubr
          86 hlineto
          272 callsubr
          128 113 vlineto
          endchar
        </CharString>
        <CharString name="dvG_RA">
          228 223 271 90 callgsubr
        </CharString>
        <CharString name="dvG_R_YA">
          611 898 -78 callsubr
          -675 -258 139 callgsubr
          887 371 rmoveto
          -1148 252 callsubr
          -72 -102 callgsubr
          244 198 vlineto
          -28 callsubr
          -136 hlineto
          -334 -336 rlineto
          160 hlineto
          199 200 rlineto
          -30 25 45 -12 66 -29 callgsubr
        </CharString>
        <CharString name="dvG_SA">
          681 968 363 rmoveto
          -70 hlineto
          -74 callsubr
          70 hlineto
          -745 -338 -66 callsubr
          957 451 rmoveto
          -1218 -113 -75 callsubr
          264 vlineto
          6 callgsubr
          116 callsubr
          127 287 -250 -94 callsubr
        </CharString>
        <CharString name="dvG_VA">
          469 223 191 -66 callsubr
          745 451 rmoveto
          -1006 -113 -75 callsubr
          320 61 callgsubr
          124 158 callsubr
          -15 callgsubr
        </CharString>
        <CharString name="dvG_YA">
          602 889 -78 callsubr
          -666 -338 -66 callsubr
          878 451 rmoveto
          -1139 -113 -75 callsubr
          189 vlineto
          -28 callsubr
          -187 hlineto
          -89 callgsubr
        </CharString>
        <CharString name="dvGx">
          -26 166 98 callsubr
          57 191 -66 callsubr
          255 451 rmoveto
          -516 -113 -75 callsubr
          60 vlineto
          endchar
        </CharString>
        <CharString name="dvGxA">
          229 170 -117 -31 callsubr
          53 179 -66 callsubr
          505 451 rmoveto
          -766 -113 -75 callsubr
          132 callsubr
        </CharString>
        <CharString name="dvGx_R">
          103 198 328 rmoveto
          26 5 5 26 vhcurveto
          37 -64 hlineto
          -107 callgsubr
          77 -137 rmoveto
          272 callsubr
          128 113 -584 260 callgsubr
          375 142 rmoveto
          -378 -380 rlineto
          160 hlineto
          218 219 rlineto
          -99 -163 96 callgsubr
        </CharString>
        <CharString name="dvGx_RA">
          228 436 -179 -31 callsubr
          -213 321 90 callgsubr
        </CharString>
        <CharString name="dvH">
          -9 180 -61 43 callsubr
          -366 703 rmoveto
          -113 298 -57 -98 vlineto
          -109 -31 -34 -73 hvcurveto
          -47 vlineto
          99 callsubr
          308 callgsubr
        </CharString>
        <CharString name="dvHA">
          -9 508 642 rmoveto
          -528 -113 298 -57 -98 hlineto
          -109 -31 -34 -73 hvcurveto
          -47 vlineto
          99 callsubr
          hlineto
          endchar
        </CharString>
        <CharString name="dvHA_mU">
          -9 448 359 rmoveto
          170 60 113 -528 253 callgsubr
          -47 -59 callsubr
          -74 vlineto
          -93 30 -34 131 vhcurveto
          50 hlineto
          26 5 -5 -26 hvcurveto
          -9 vlineto
          -26 -5 -5 -26 vhcurveto
          -39 hlineto
          -21 -12 5 17 -11 hvcurveto
          -20 31 rlineto
          -199 hlineto
          30 -51 rlineto
          -78 46 47 -37 110 hhcurveto
          139 hlineto
          86 45 -18 callgsubr
          44 vlineto
          93 -45 33 -86 vhcurveto
          -88 -19 callgsubr
          endchar
        </CharString>
        <CharString name="dvHA_mUU">
          -9 499 -2 rmoveto
          76 -51 -32 39 -110 hhcurveto
          -73 -14 callgsubr
          113 107 callgsubr
          -47 -59 callsubr
          -84 vlineto
          -48 6 -29 26 -14 vhcurveto
          -2 -12 -1 -13 -15 vvcurveto
          -44 vlineto
          -93 35 215 callsubr
          179 hlineto
          endchar
        </CharString>
        <CharString name="dvHA_mvR">
          -26 431 240 callgsubr
          60 113 -511 200 callgsubr
          247 93 -215 -107 callsubr
          102 -86 callsubr
          34 hlineto
          11 4 -4 -8 hvcurveto
          -19 -28 -13 -27 vvcurveto
          -27 19 -15 40 vhcurveto
          113 66 -46 hlineto
          -11 -4 4 8 hvcurveto
          21 32 15 35 vvcurveto
          33 -22 14 -44 vhcurveto
          -98 166 callsubr
        </CharString>
        <CharString name="dvH_LA">
          121 431 240 callgsubr
          207 113 -658 97 callgsubr
          -223 vlineto
          -36 callgsubr
          230 93 -198 -107 callsubr
          257 -86 callsubr
          235 20 callgsubr
          -10 -42 vlineto
          -23 -9 -9 -14 -6 hvcurveto
          -1 hlineto
          16 -5 -13 7 -29 hhcurveto
          -27 hlineto
          -55 -33 -19 -55 hvcurveto
          -78 vlineto
          -55 33 -19 55 vhcurveto
          53 70 -47 hlineto
          -15 -4 5 15 hvcurveto
          46 vlineto
          15 4 -83 callgsubr
          12 hlineto
          15 4 -5 -15 hvcurveto
          -36 75 36 vlineto
          15 4 -83 callgsubr
          24 -156 85 252 hlineto
          305 callsubr
          -245 166 callsubr
        </CharString>
        <CharString name="dvH_MA">
          241 528 272 rmoveto
          -91 hlineto
          29 -15 -30 15 -55 hhcurveto
          -104 4 callgsubr
          215 170 80 hlineto
          2 callsubr
          -778 -113 298 -57 -98 hlineto
          227 callgsubr
          247 113 -215 -107 callsubr
          42 -86 callsubr
          20 20 callgsubr
          -39 170 45 80 -185 -94 callsubr
        </CharString>
        <CharString name="dvH_NA">
          19 431 240 callgsubr
          105 113 -556 200 callgsubr
          220 93 -188 172 callgsubr
          145 20 callgsubr
          -4 -61 vlineto
          -61 -36 -20 -55 hvcurveto
          -24 94 20 vlineto
          16 5 7 18 vhcurveto
          41 -52 85 121 hlineto
          305 callsubr
          -155 166 callsubr
        </CharString>
        <CharString name="dvH_NNA">
          69 357 198 rmoveto
          -11 -1 -6 -9 vhcurveto
          -11 hlineto
          -9 -1 6 11 hvcurveto
          58 31 vlineto
          74 113 rmoveto
          160 155 113 -606 -113 281 -57 -81 vlineto
          34 callgsubr
          12 -65 hlineto
          -36 20 -25 48 vhcurveto
          57 hlineto
          48 20 25 36 hvcurveto
          65 10 vlineto
          15 10 -5 -19 hvcurveto
          -62 85 71 vlineto
          305 callsubr
          -225 166 callsubr
        </CharString>
        <CharString name="dvH_R">
          19 210 -61 43 callsubr
          -396 703 rmoveto
          -113 281 -57 -81 vlineto
          34 callgsubr
          69 hlineto
          -64 -113 rlineto
          90 hlineto
          63 111 rlineto
          8 -3 4 -6 -13 vvcurveto
          -90 85 99 vlineto
          305 callsubr
          -155 4 callgsubr
          198 160 105 308 callgsubr
        </CharString>
        <CharString name="dvH_RA">
          19 431 240 callgsubr
          105 113 -556 -113 281 -57 -81 vlineto
          34 callgsubr
          69 hlineto
          -64 -113 rlineto
          90 hlineto
          63 111 rlineto
          8 -3 4 -6 -13 vvcurveto
          -90 85 99 vlineto
          305 callsubr
          -155 166 callsubr
        </CharString>
        <CharString name="dvH_VA">
          76 431 240 callgsubr
          162 113 -613 97 callgsubr
          -223 vlineto
          -36 callgsubr
          210 93 -178 -107 callsubr
          257 -86 callsubr
          184 20 callgsubr
          -116 vlineto
          -51 callgsubr
          -64 hlineto
          -15 -4 5 15 hvcurveto
          18 vlineto
          15 4 -83 callgsubr
          47 70 -53 hlineto
          -55 -33 -19 -55 hvcurveto
          -50 vlineto
          -55 33 -19 55 vhcurveto
          72 hlineto
          14 11 3 6 7 hvcurveto
          -42 85 269 vlineto
          305 callsubr
          -194 166 callsubr
        </CharString>
        <CharString name="dvH_YA">
          241 518 241 rmoveto
          -51 callgsubr
          -55 hlineto
          4 9 1 10 9 vvcurveto
          6 vlineto
          53 -25 32 -72 vhcurveto
          -104 4 callgsubr
          198 160 87 hlineto
          2 callsubr
          -768 -113 281 -57 -81 hlineto
          34 callgsubr
          77 hlineto
          13 6 -5 -12 hvcurveto
          -15 vlineto
          -12 -6 -5 -13 vhcurveto
          -49 -70 225 hlineto
          14 11 3 6 7 hvcurveto
          -146 -94 callsubr
        </CharString>
        <CharString name="dvI">
          -35 414 240 callgsubr
          68 113 -502 29 callsubr
          endchar
        </CharString>
        <CharString name="dvII">
          -35 490 709 rmoveto
          103 -106 211 callgsubr
          -63 -264 29 callsubr
          191 160 68 113 -68 47 hlineto
          -101 callgsubr
          endchar
        </CharString>
        <CharString name="dvII_Anusvara">
          -35 414 786 rmoveto
          -101 callgsubr
          72 103 -125 hlineto
          -106 callsubr
          -160 -264 29 callsubr
          191 160 68 113 -68 hlineto
          36 133 245 callgsubr
        </CharString>
        <CharString name="dvJ">
          -19 560 137 callsubr
        </CharString>
        <CharString name="dvJA">
          231 748 642 134 callgsubr
        </CharString>
        <CharString name="dvJH">
          -34 414 240 callgsubr
          139 113 -573 66 callsubr
          73 vlineto
          8 -1 320 callgsubr
          123 103 -330 289 callgsubr
        </CharString>
        <CharString name="dvJHA">
          215 503 305 rmoveto
          -280 135 callgsubr
          89 hlineto
          229 113 rmoveto
          -772 -113 284 -57 -74 hlineto
          -47 callsubr
          73 vlineto
          8 -1 320 callgsubr
          72 -202 152 callsubr
        </CharString>
        <CharString name="dvJH_MA">
          679 966 -62 callsubr
          -238 -14 rmoveto
          -277 135 callgsubr
          324 217 callsubr
          716 317 rmoveto
          -1236 124 callsubr
          41 -33 119 105 callsubr
        </CharString>
        <CharString name="dvJH_NA">
          681 968 472 rmoveto
          238 callsubr
          -60 -277 vlineto
          -15 251 callsubr
          24 -82 callsubr
          191 160 554 hlineto
          26 callgsubr
          460 283 rmoveto
          -1218 124 callsubr
          41 -33 119 58 callgsubr
        </CharString>
        <CharString name="dvJH_R">
          89 439 281 callgsubr
          138 516 rmoveto
          160 202 113 -636 66 callsubr
          73 vlineto
          8 -1 320 callgsubr
          186 103 -393 289 callgsubr
        </CharString>
        <CharString name="dvJH_RA">
          215 503 351 rmoveto
          -280 -53 callgsubr
          12 hvcurveto
          14 vlineto
          13 -103 callgsubr
          191 129 89 hlineto
          229 113 rmoveto
          -772 -113 284 -41 -74 hlineto
          -109 -31 -29 -63 hvcurveto
          -41 vlineto
          -63 31 -30 -11 callgsubr
          69 hlineto
          15 8 -4 -13 hvcurveto
          -28 vlineto
          -13 -8 -4 -15 vhcurveto
          -39 32 -170 -232 170 111 92 hlineto
          109 31 29 63 hvcurveto
          40 vlineto
          7 -1 6 -1 6 vhcurveto
          72 -80 hlineto
          -285 -241 rlineto
          149 hlineto
          136 121 rlineto
          -62 -94 callsubr
        </CharString>
        <CharString name="dvJH_YA">
          571 858 -78 callsubr
          -230 -117 rmoveto
          -15 -71 callsubr
          -125 -87 -277 135 callgsubr
          200 183 callgsubr
          -1128 124 callsubr
          51 -33 109 -29 callgsubr
        </CharString>
        <CharString name="dvJ_BA">
          566 686 246 callsubr
          -1103 -113 873 155 callsubr
          -533 106 callgsubr
          -154 vlineto
          55 callgsubr
        </CharString>
        <CharString name="dvJ_DA">
          467 984 642 rmoveto
          -1004 -113 774 -57 -476 106 callgsubr
          -154 1 callsubr
        </CharString>
        <CharString name="dvJ_DDA">
          455 889 274 callgsubr
          -992 -113 739 -57 -441 59 callgsubr
          109 callsubr
        </CharString>
        <CharString name="dvJ_JA">
          707 1224 642 rmoveto
          -1244 -113 1014 264 callsubr
          -408 59 callgsubr
          -154 152 callgsubr
        </CharString>
        <CharString name="dvJ_JHA">
          701 989 305 rmoveto
          -280 135 callgsubr
          89 hlineto
          229 113 rmoveto
          -1238 -113 750 -57 -452 106 callgsubr
          -50 vlineto
          -87 callgsubr
          69 -74 callgsubr
          -59 67 callgsubr
          -227 170 62 92 -84 callgsubr
          73 vlineto
          8 -1 320 callgsubr
          72 -202 152 callsubr
        </CharString>
        <CharString name="dvJ_J_NYA">
          696 1180 642 rmoveto
          -1200 -113 970 -87 -672 193 callgsubr
          227 -170 -237 177 callsubr
          241 vlineto
          -64 callgsubr
          -186 67 callgsubr
          -227 170 62 92 -84 callgsubr
          197 vlineto
          10 -2 8 -4 7 vhcurveto
          74 -329 152 callsubr
        </CharString>
        <CharString name="dvJ_J_VA">
          950 1467 642 rmoveto
          -1487 -113 1257 -37 callgsubr
          -442 -257 hlineto
          171 callsubr
          -408 59 callgsubr
          -154 -78 callgsubr
          72 vlineto
          -3 -11 -1 -15 -12 vvcurveto
          -116 -2 callgsubr
        </CharString>
        <CharString name="dvJ_J_YA">
          1085 1372 114 callsubr
          45 vlineto
          15 -3 12 -5 11 vhcurveto
          76 hlineto
          2 callsubr
          -1622 -113 1139 hlineto
          15 8 -5 -15 303 callsubr
          -365 193 callgsubr
          227 -408 -227 -23 callsubr
          227 -170 -237 177 callsubr
          68 -124 177 callsubr
          70 -124 vlineto
          -89 callgsubr
        </CharString>
        <CharString name="dvJ_KA">
          713 1216 245 callsubr
          -1236 -113 781 16 callsubr
          -442 106 callgsubr
          -154 -81 callsubr
        </CharString>
        <CharString name="dvJ_MA">
          715 1002 432 201 callgsubr
          -1252 -113 774 -97 -476 -217 hlineto
          -107 callgsubr
          217 -170 -227 -48 callsubr
          68 141 callgsubr
        </CharString>
        <CharString name="dvJ_NA">
          697 754 11 callsubr
          -1234 -113 1004 -57 -706 106 callgsubr
          -154 23 callsubr
        </CharString>
        <CharString name="dvJ_NY">
          -27 67 329 rmoveto
          182 -74 callgsubr
          -186 67 callgsubr
          -227 170 62 92 -84 callgsubr
          197 vlineto
          10 -2 8 -4 7 vhcurveto
          147 113 -516 hlineto
          -87 200 rmoveto
          -113 603 113 vlineto
          endchar
        </CharString>
        <CharString name="dvJ_NYA">
          223 740 642 rmoveto
          -760 -113 530 -87 -443 -113 182 -74 callgsubr
          -186 67 callgsubr
          -227 170 62 92 -84 callgsubr
          197 vlineto
          10 -2 8 -4 7 vhcurveto
          74 -329 152 callsubr
        </CharString>
        <CharString name="dvJ_NY_YA">
          592 879 -61 callsubr
          80 -66 callgsubr
          73 0 callsubr
          2 callsubr
          -1129 -113 635 hlineto
          -62 callgsubr
          -67 -79 callgsubr
          -559 -113 182 -74 callgsubr
          -152 67 callgsubr
          -227 170 62 92 -84 callgsubr
          163 vlineto
          10 -2 8 -4 7 vhcurveto
          65 -90 hlineto
          -89 callgsubr
        </CharString>
        <CharString name="dvJ_R">
          103 callsubr
          endchar
        </CharString>
        <CharString name="dvJ_RA">
          231 748 642 110 callgsubr
        </CharString>
        <CharString name="dvJ_TA">
          472 989 642 rmoveto
          -1009 -113 779 -57 -481 106 callgsubr
          -252 14 callgsubr
        </CharString>
        <CharString name="dvJ_TTA">
          467 984 642 rmoveto
          -1004 -113 774 -57 -476 106 callgsubr
          -232 vlineto
          -63 callgsubr
        </CharString>
        <CharString name="dvJ_VA">
          474 991 642 rmoveto
          -1011 -113 781 -37 callgsubr
          -442 106 callgsubr
          -154 -2 callgsubr
        </CharString>
        <CharString name="dvJ_YA">
          609 896 114 callsubr
          45 vlineto
          15 -3 12 -5 11 vhcurveto
          76 hlineto
          2 callsubr
          -1146 -113 663 hlineto
          15 8 -5 -15 303 callsubr
          -365 193 callgsubr
          227 -170 -237 177 callsubr
          70 -124 vlineto
          -89 callgsubr
        </CharString>
        <CharString name="dvJx">
          -19 182 hmoveto
          -129 122 129 vlineto
          256 137 callsubr
        </CharString>
        <CharString name="dvJxA">
          231 190 -117 -31 callsubr
          558 630 134 callgsubr
        </CharString>
        <CharString name="dvJx_JxA">
          707 182 -118 -31 callsubr
          483 98 callsubr
          559 631 rmoveto
          -1244 -113 1014 264 callsubr
          -408 59 callgsubr
          -154 152 callgsubr
        </CharString>
        <CharString name="dvJx_R">
          103 callsubr
          -132 -201 96 callgsubr
        </CharString>
        <CharString name="dvJx_RA">
          231 456 -179 -31 callsubr
          292 692 110 callgsubr
        </CharString>
        <CharString name="dvJx_YA">
          609 181 -117 -31 callsubr
          715 213 -68 callsubr
          114 -66 callgsubr
          45 vlineto
          15 -3 12 -5 11 vhcurveto
          76 hlineto
          2 callsubr
          -1146 -113 663 hlineto
          15 8 -5 -15 303 callsubr
          -365 193 callgsubr
          227 -170 -237 177 callsubr
          70 -124 vlineto
          -89 callgsubr
        </CharString>
        <CharString name="dvK">
          -5 573 245 callsubr
          -593 -113 285 -314 vlineto
          -104 callgsubr
          27 16 5 11 10 hvcurveto
          -94 170 305 -86 callsubr
          115 113 -85 hlineto
          211 callsubr
          vlineto
          endchar
        </CharString>
        <CharString name="dvKA">
          203 720 245 callsubr
          -740 -113 285 -314 vlineto
          -19 -8 -5 -15 vhcurveto
          -29 hlineto
          -15 -8 5 19 hvcurveto
          134 vlineto
          15 8 5 15 vhcurveto
          11 103 -64 hlineto
          -109 -31 -34 -73 hvcurveto
          -160 -81 callsubr
        </CharString>
        <CharString name="dvKH">
          196 646 349 rmoveto
          172 callsubr
          -22 callgsubr
          -160 vlineto
          -93 45 -5 callgsubr
          165 113 -103 -107 callsubr
          -666 427 rmoveto
          307 callgsubr
          vlineto
          -80 callgsubr
          345 308 callgsubr
        </CharString>
        <CharString name="dvKHA">
          434 951 642 rmoveto
          -971 -113 249 hlineto
          -80 callgsubr
          294 -314 hlineto
          -104 callgsubr
          27 16 5 11 10 hvcurveto
          -94 -88 callgsubr
          endchar
        </CharString>
        <CharString name="dvKH_KHA">
          1115 1632 642 rmoveto
          -1652 -113 249 hlineto
          -80 callgsubr
          483 hlineto
          -39 callsubr
          -257 hlineto
          -104 callgsubr
          28 16 6 11 10 hvcurveto
          -68 9 55 -27 115 hhcurveto
          64 callgsubr
          294 -314 hlineto
          -104 callgsubr
          27 16 5 11 10 hvcurveto
          -94 -88 callgsubr
          endchar
        </CharString>
        <CharString name="dvKH_MA">
          920 1207 432 201 callgsubr
          -1457 -113 249 hlineto
          -80 callgsubr
          532 217 callsubr
          -110 vlineto
          -105 callsubr
          82 hlineto
          36 22 9 18 12 hvcurveto
          -19 25 40 -8 58 105 callsubr
        </CharString>
        <CharString name="dvKH_NA">
          902 959 11 callsubr
          -1439 -113 249 hlineto
          -80 callgsubr
          762 321 callgsubr
          -150 vlineto
          -105 callsubr
          82 hlineto
          36 22 9 18 12 hvcurveto
          -19 25 174 callgsubr
        </CharString>
        <CharString name="dvKH_R">
          223 646 349 54 callsubr
        </CharString>
        <CharString name="dvKH_RA">
          434 951 642 rmoveto
          -971 307 callgsubr
          hlineto
          140 callgsubr
          294 -294 hlineto
          -34 callgsubr
          529 60 vlineto
          endchar
        </CharString>
        <CharString name="dvKH_SHA">
          904 210 230 -8 callsubr
        </CharString>
        <CharString name="dvKH_TA">
          677 1194 642 rmoveto
          -1214 -113 249 hlineto
          -80 callgsubr
          537 -57 -103 hlineto
          -106 callsubr
          -150 vlineto
          -104 callgsubr
          27 17 5 11 9 hvcurveto
          -64 4 34 -30 102 hhcurveto
          -38 callsubr
        </CharString>
        <CharString name="dvKH_VA">
          679 1196 642 13 callgsubr
        </CharString>
        <CharString name="dvKH_YA">
          812 1099 3 callgsubr
          -1349 -113 249 hlineto
          -80 callgsubr
          408 192 callgsubr
          -177 hlineto
          -105 callsubr
          82 hlineto
          38 21 10 19 12 hvcurveto
          -20 26 41 -9 55 -29 callgsubr
        </CharString>
        <CharString name="dvKHx">
          196 160 -177 -31 callsubr
          486 397 rmoveto
          172 callsubr
          -22 callgsubr
          -160 vlineto
          -93 45 -5 callgsubr
          165 113 -103 -107 callsubr
          -666 427 rmoveto
          307 callgsubr
          vlineto
          -80 callgsubr
          345 308 callgsubr
        </CharString>
        <CharString name="dvKHxA">
          434 160 -177 -31 callsubr
          791 690 rmoveto
          -971 -113 249 hlineto
          -80 callgsubr
          294 -314 hlineto
          -104 callgsubr
          27 16 5 11 10 hvcurveto
          -94 -88 callgsubr
          endchar
        </CharString>
        <CharString name="dvKHx_MA">
          920 160 -177 -31 callsubr
          1047 480 201 callgsubr
          -1457 -113 249 hlineto
          -80 callgsubr
          532 217 callsubr
          -110 vlineto
          -105 callsubr
          82 hlineto
          36 22 9 18 12 hvcurveto
          -19 25 40 -8 58 105 callsubr
        </CharString>
        <CharString name="dvKHx_R">
          223 286 -179 -31 callsubr
          360 399 54 callsubr
        </CharString>
        <CharString name="dvKHx_RA">
          434 687 -179 -31 callsubr
          264 692 rmoveto
          -971 307 callgsubr
          hlineto
          140 callgsubr
          294 -294 hlineto
          -34 callgsubr
          529 60 vlineto
          endchar
        </CharString>
        <CharString name="dvKHx_SA">
          904 160 -177 -31 callsubr
          1018 411 rmoveto
          -70 hlineto
          -74 callsubr
          70 hlineto
          2 callsubr
          -1428 -113 249 hlineto
          -80 callgsubr
          483 101 callgsubr
          -257 hlineto
          -92 callsubr
          134 -82 callsubr
          10 103 -63 143 callgsubr
          -92 callgsubr
          127 287 -250 -94 callsubr
        </CharString>
        <CharString name="dvKHx_SHA">
          904 160 -177 -31 callsubr
          50 278 -8 callsubr
        </CharString>
        <CharString name="dvKHx_TA">
          677 160 -177 -31 callsubr
          1034 690 rmoveto
          -1214 -113 249 hlineto
          -80 callgsubr
          537 -57 -103 hlineto
          -106 callsubr
          -150 vlineto
          -104 callgsubr
          27 17 5 11 9 hvcurveto
          -64 4 34 -30 102 hhcurveto
          -38 callsubr
        </CharString>
        <CharString name="dvKHx_VA">
          679 160 -177 -31 callsubr
          1036 690 13 callgsubr
        </CharString>
        <CharString name="dvKHx_YA">
          812 160 -177 -31 callsubr
          939 273 30 callgsubr
          -1349 -113 249 hlineto
          -80 callgsubr
          408 192 callgsubr
          -177 hlineto
          -105 callsubr
          82 hlineto
          38 21 10 19 12 hvcurveto
          -20 26 41 -9 55 -29 callgsubr
        </CharString>
        <CharString name="dvK_CA">
          458 745 -45 callgsubr
          90 -86 callsubr
          23 113 -228 hlineto
          211 callsubr
          310 239 callsubr
          -995 -113 285 -314 hlineto
          -104 callgsubr
          27 16 5 11 10 hvcurveto
          -94 170 305 -86 callsubr
          59 hlineto
          180 callgsubr
          -70 -2 callgsubr
        </CharString>
        <CharString name="dvK_DA">
          461 748 459 rmoveto
          -260 -57 callsubr
          86 313 239 callsubr
          -998 -113 285 -314 hlineto
          -104 callgsubr
          27 16 5 11 10 hvcurveto
          -94 170 322 -86 callsubr
          52 -141 hlineto
          -71 callgsubr
          24 136 callgsubr
          278 -170 -63 149 callgsubr
          107 219 callgsubr
          183 60 hlineto
          endchar
        </CharString>
        <CharString name="dvK_JA">
          701 988 258 callgsubr
          -192 vlineto
          -50 callgsubr
          73 553 239 callsubr
          -1238 -113 285 -314 hlineto
          -104 callgsubr
          27 16 5 11 10 hvcurveto
          -94 170 335 -86 callsubr
          52 -154 68 callgsubr
        </CharString>
        <CharString name="dvK_KA">
          693 755 215 rmoveto
          -39 callgsubr
          -226 -57 callsubr
          73 320 vlineto
          269 callsubr
          -1230 -113 285 -314 vlineto
          -104 callgsubr
          27 16 5 11 10 hvcurveto
          -94 170 335 -86 callsubr
          58 hlineto
          -4 -15 -2 -15 -14 vvcurveto
          -110 -81 callsubr
        </CharString>
        <CharString name="dvK_KHA">
          904 733 377 rmoveto
          -58 callsubr
          99 -192 hlineto
          211 callsubr
          218 callsubr
          688 147 rmoveto
          -1441 -113 285 -314 hlineto
          -104 callgsubr
          27 16 5 11 10 hvcurveto
          -94 170 305 -86 callsubr
          52 -214 117 callsubr
          294 -314 hlineto
          -104 callgsubr
          27 16 5 11 10 hvcurveto
          -94 -88 callgsubr
          endchar
        </CharString>
        <CharString name="dvK_LA">
          708 995 442 rmoveto
          78 callsubr
          -294 hlineto
          211 callsubr
          560 239 callsubr
          -1245 -113 285 -314 hlineto
          -104 callgsubr
          27 16 5 11 10 hvcurveto
          -94 170 305 -86 callsubr
          52 hlineto
          -5 0 -4 -5 vvcurveto
          -208 vlineto
          -87 callgsubr
          197 callgsubr
          -329 152 callsubr
        </CharString>
        <CharString name="dvK_MA">
          709 996 -62 callsubr
          -313 210 rmoveto
          313 -97 -260 -57 callsubr
          791 226 rmoveto
          -1246 -113 285 -314 hlineto
          -104 callgsubr
          27 16 5 11 10 hvcurveto
          -94 170 295 vlineto
          19 8 5 15 223 callsubr
        </CharString>
        <CharString name="dvK_NA">
          691 978 442 rmoveto
          -490 hlineto
          211 callsubr
          543 vlineto
          -230 -13 callsubr
          94 -82 callsubr
          45 hlineto
          460 313 rmoveto
          -1228 -113 285 -314 hlineto
          -104 callgsubr
          27 16 5 11 10 hvcurveto
          -94 170 305 -86 callsubr
          52 -124 hlineto
          -103 callsubr
          124 60 -329 -94 callsubr
        </CharString>
        <CharString name="dvK_NNA">
          721 758 215 14 callsubr
          -270 158 callgsubr
          85 -87 vlineto
          718 200 rmoveto
          -1258 -113 285 -314 hlineto
          -104 callgsubr
          27 16 5 11 10 hvcurveto
          -94 170 305 -86 callsubr
          62 -124 hlineto
          -103 callsubr
          324 132 callsubr
        </CharString>
        <CharString name="dvK_PA">
          477 764 129 callgsubr
          475 200 rmoveto
          -1014 -113 285 -314 hlineto
          -104 callgsubr
          27 16 5 11 10 hvcurveto
          -94 170 305 -86 callsubr
          61 -124 hlineto
          121 callgsubr
          529 60 vlineto
          endchar
        </CharString>
        <CharString name="dvK_PHA">
          702 764 129 callgsubr
          700 87 rmoveto
          113 -1239 -113 285 -314 vlineto
          -104 callgsubr
          27 16 5 11 10 hvcurveto
          -94 170 305 -86 callsubr
          61 -124 hlineto
          -98 callgsubr
        </CharString>
        <CharString name="dvK_P_RA">
          477 764 71 callgsubr
          -276 158 callgsubr
          84 -87 vlineto
          475 200 rmoveto
          -1014 -113 285 -314 hlineto
          -104 callgsubr
          27 16 5 11 10 hvcurveto
          -94 170 305 -86 callsubr
          61 -104 161 callgsubr
        </CharString>
        <CharString name="dvK_R">
          75 612 245 callsubr
          -632 180 callsubr
          -294 vlineto
          -34 callgsubr
          305 -86 callsubr
          154 113 -124 hlineto
          211 callsubr
          vlineto
          endchar
        </CharString>
        <CharString name="dvK_RA">
          203 720 245 callsubr
          -740 180 callsubr
          -294 vlineto
          -34 callgsubr
          335 -86 callsubr
          29 270 callsubr
          -19 hvcurveto
          -114 -65 callgsubr
          140 36 callsubr
          -61 -26 callgsubr
        </CharString>
        <CharString name="dvK_SA">
          680 967 130 callsubr
          79 -192 hlineto
          211 callsubr
          264 vlineto
          26 8 -8 -26 hvcurveto
          464 147 rmoveto
          -1217 -113 285 -314 hlineto
          -104 callgsubr
          27 16 5 11 10 hvcurveto
          -94 170 305 -86 callsubr
          52 -222 -93 callgsubr
          287 -250 -94 callsubr
        </CharString>
        <CharString name="dvK_SHA">
          707 664 647 18 callsubr
          -206 -57 callsubr
          139 51 113 -506 -113 285 -314 vlineto
          -104 callgsubr
          27 16 5 11 10 hvcurveto
          -94 170 269 -86 callsubr
          66 117 callgsubr
        </CharString>
        <CharString name="dvK_SS">
          66 248 510 rmoveto
          19 10 -83 callgsubr
          18 20 callgsubr
          -125 -23 callsubr
          348 -137 rmoveto
          113 -116 vlineto
          -42 callsubr
          endchar
        </CharString>
        <CharString name="dvK_SSA">
          276 316 385 100 callgsubr
          477 132 rmoveto
          -230 -281 -83 hlineto
          -42 callsubr
          343 -248 152 callsubr
        </CharString>
        <CharString name="dvK_SS_MA">
          773 1060 -62 callsubr
          -496 66 100 callgsubr
          974 132 rmoveto
          -766 317 callsubr
          -89 -37 -23 -48 -11 hvcurveto
          -97 hlineto
          -42 callsubr
          354 -43 105 callgsubr
        </CharString>
        <CharString name="dvK_SS_M_YA">
          1143 1430 -40 callgsubr
          -496 53 100 callgsubr
          1344 132 rmoveto
          -1136 319 callsubr
          -84 -98 hlineto
          -97 -35 -27 -57 -7 hvcurveto
          -95 hlineto
          -42 callsubr
          354 -43 hlineto
          -103 callsubr
          127 70 -127 vlineto
          -89 callgsubr
        </CharString>
        <CharString name="dvK_SS_VA">
          535 316 385 100 callgsubr
          720 132 rmoveto
          -495 -113 265 81 callsubr
          -4 -81 vlineto
          -42 callsubr
          341 -43 hlineto
          121 callgsubr
          529 60 vlineto
          endchar
        </CharString>
        <CharString name="dvK_SS_YA">
          652 939 -61 callsubr
          57 -66 callgsubr
          96 0 callsubr
          -623 -120 -100 callsubr
          101 148 callsubr
          853 132 rmoveto
          -628 -113 134 hlineto
          -62 callgsubr
          -90 -79 callgsubr
          -206 315 callsubr
          110 46 callgsubr
          -86 159 callgsubr
          -88 vlineto
          -22 6 -17 13 -12 vhcurveto
          -45 -11 -27 -35 -60 vvcurveto
          -165 vlineto
          -75 42 -35 65 vhcurveto
          131 hlineto
          27 16 5 11 10 hvcurveto
          -78 170 257 -170 -58 146 callgsubr
          -71 -97 callgsubr
          111 -33 callsubr
          341 -67 hlineto
          -89 callgsubr
        </CharString>
        <CharString name="dvK_S_DDA">
          910 1111 472 rmoveto
          -106 callsubr
          -2 -74 vlineto
          -74 callsubr
          277 -57 hlineto
          -441 -75 76 callsubr
          611 -126 293 callsubr
          -1447 -113 285 -314 vlineto
          -104 callgsubr
          27 16 5 11 10 hvcurveto
          -94 170 305 -86 callsubr
          52 -222 -93 callgsubr
          303 vlineto
          -32 17 38 -15 73 hhcurveto
          127 callgsubr
          endchar
        </CharString>
        <CharString name="dvK_S_P_LA">
          1431 1718 472 rmoveto
          59 callsubr
          314 560 vlineto
          -811 153 callgsubr
          1205 147 rmoveto
          -1968 -113 285 -314 hlineto
          -104 callgsubr
          27 16 5 11 10 hvcurveto
          -94 170 305 -86 callsubr
          62 -222 -93 callgsubr
          298 -45 vlineto
          -93 45 -5 callgsubr
          61 hlineto
          27 17 5 11 9 hvcurveto
          -64 4 34 -30 102 hhcurveto
          -56 callsubr
        </CharString>
        <CharString name="dvK_S_P_RA">
          946 1233 -14 callsubr
          -326 153 callgsubr
          720 147 rmoveto
          -1483 -113 285 -314 hlineto
          -104 callgsubr
          27 16 5 11 10 hvcurveto
          -94 170 305 -86 callsubr
          62 -222 -93 callgsubr
          298 -45 vlineto
          -68 24 -37 47 -14 vhcurveto
          -98 -146 rlineto
          186 hlineto
          86 139 rlineto
          -79 -94 callsubr
        </CharString>
        <CharString name="dvK_S_TA">
          912 1199 472 rmoveto
          -103 17 callsubr
          302 hlineto
          -466 -132 76 callsubr
          696 147 rmoveto
          -1449 -113 285 -314 hlineto
          -104 callgsubr
          27 16 5 11 10 hvcurveto
          -94 170 305 -86 callsubr
          52 -222 -93 callgsubr
          276 -143 14 callgsubr
        </CharString>
        <CharString name="dvK_S_TTA">
          922 1209 472 rmoveto
          -98 305 callgsubr
          -74 vlineto
          -74 callsubr
          312 hlineto
          -476 -132 76 callsubr
          706 147 rmoveto
          -1459 -113 285 -314 hlineto
          -104 callgsubr
          27 16 5 11 10 hvcurveto
          -94 170 305 -86 callsubr
          52 -222 -93 callgsubr
          291 -123 vlineto
          -63 callgsubr
        </CharString>
        <CharString name="dvK_TA">
          247 764 245 callsubr
          -784 -113 329 -73 vlineto
          11 -10 -16 5 -27 hhcurveto
          -249 -113 77 hlineto
          -13 -8 -7 -16 -24 vvcurveto
          -126 vlineto
          -87 callgsubr
          64 103 -30 callgsubr
          134 -86 callsubr
          29 146 callsubr
          -335 -105 callgsubr
        </CharString>
        <CharString name="dvK_THA">
          624 1141 642 38 callsubr
          -162 -57 callsubr
          142 56 113 -511 -113 285 -314 vlineto
          -104 callgsubr
          27 16 5 11 10 hvcurveto
          -94 170 266 -86 callsubr
          62 -85 173 callsubr
        </CharString>
        <CharString name="dvK_TTA">
          461 748 472 rmoveto
          -260 -57 callsubr
          73 313 239 callsubr
          -998 -113 285 -314 hlineto
          -104 callgsubr
          27 16 5 11 10 hvcurveto
          -94 170 335 -86 callsubr
          52 -232 hlineto
          -63 callgsubr
        </CharString>
        <CharString name="dvK_T_RA">
          504 791 281 rmoveto
          -15 hlineto
          -81 119 rlineto
          51 -35 -24 16 -63 hhcurveto
          -85 -57 callsubr
          78 356 239 callsubr
          -1041 -113 285 -314 hlineto
          -104 callgsubr
          27 16 5 11 10 hvcurveto
          -94 170 330 108 callgsubr
          hlineto
          21 11 -4 -27 18 hvcurveto
          63 -92 252 callgsubr
        </CharString>
        <CharString name="dvK_T_VA">
          713 1000 -45 callgsubr
          104 vlineto
          172 callsubr
          -471 hlineto
          211 callsubr
          565 239 callsubr
          -1250 -113 285 -314 hlineto
          -104 callgsubr
          27 16 5 11 10 hvcurveto
          -94 170 305 -86 callsubr
          62 hlineto
          -6 -5 -4 -9 -10 vvcurveto
          -198 170 callgsubr
          62 hlineto
          -6 -5 -4 -9 -10 vvcurveto
          -100 -2 callgsubr
        </CharString>
        <CharString name="dvK_T_YA">
          839 1126 -61 callsubr
          93 -66 callgsubr
          60 237 callgsubr
          -88 rmoveto
          -15 -71 callsubr
          -385 -57 callsubr
          124 427 157 callsubr
          -1376 -113 285 -314 hlineto
          -104 callgsubr
          27 16 5 11 10 hvcurveto
          -94 170 284 -86 callsubr
          47 -201 hlineto
          5 callgsubr
          155 269 callgsubr
          -103 hlineto
          -89 callgsubr
        </CharString>
        <CharString name="dvK_VA">
          468 755 -45 callgsubr
          104 vlineto
          172 callsubr
          -226 hlineto
          211 callsubr
          320 239 callsubr
          -1005 -113 285 -314 hlineto
          -104 callgsubr
          27 16 5 11 10 hvcurveto
          -94 170 305 -86 callsubr
          52 -124 hlineto
          121 callgsubr
          529 60 vlineto
          endchar
        </CharString>
        <CharString name="dvK_V_YA">
          846 1133 -78 callsubr
          -230 -117 rmoveto
          -15 -71 callsubr
          -125 -177 hlineto
          -39 callgsubr
          -226 -57 callsubr
          73 434 157 callsubr
          -1383 -113 285 -314 hlineto
          -104 callgsubr
          27 16 5 11 10 hvcurveto
          -94 170 335 -86 callsubr
          56 hlineto
          -2 -10 -2 -11 -11 vvcurveto
          -122 vlineto
          -93 45 -5 callgsubr
          91 hlineto
          36 22 8 15 12 hvcurveto
          -16 26 38 -7 50 -29 callgsubr
        </CharString>
        <CharString name="dvK_YA">
          601 888 -78 callsubr
          -230 -117 rmoveto
          -15 -71 callsubr
          -147 -57 callsubr
          153 189 157 callsubr
          -1138 -113 285 -314 hlineto
          -104 callgsubr
          27 16 5 11 10 hvcurveto
          -94 170 255 -86 callsubr
          52 -74 hlineto
          -89 callgsubr
        </CharString>
        <CharString name="dvKx">
          -5 87 98 callsubr
          486 245 callsubr
          -593 -113 285 -314 vlineto
          -104 callgsubr
          27 16 5 11 10 hvcurveto
          -94 170 305 -86 callsubr
          115 113 -85 hlineto
          211 callsubr
          vlineto
          endchar
        </CharString>
        <CharString name="dvKxA">
          203 87 98 callsubr
          633 245 callsubr
          -740 -113 285 -314 vlineto
          -19 -8 -5 -15 vhcurveto
          -29 hlineto
          -15 -8 5 19 hvcurveto
          134 vlineto
          15 8 5 15 vhcurveto
          11 103 -64 hlineto
          -109 -31 -34 -73 hvcurveto
          -160 -81 callsubr
        </CharString>
        <CharString name="dvKx_BA">
          555 77 98 callsubr
          651 369 rmoveto
          72 103 -312 -57 callsubr
          73 407 -204 vlineto
          205 callgsubr
          -1092 -113 285 -314 hlineto
          -104 callgsubr
          27 16 5 11 10 hvcurveto
          -94 170 335 -86 callsubr
          47 -154 hlineto
          55 callgsubr
        </CharString>
        <CharString name="dvKx_KxA">
          693 83 -131 -31 callsubr
          484 -126 -31 callsubr
          188 214 rmoveto
          -39 callgsubr
          -226 -57 callsubr
          73 320 vlineto
          269 callsubr
          -1230 -113 285 -314 vlineto
          -104 callgsubr
          27 16 5 11 10 hvcurveto
          -94 170 335 -86 callsubr
          58 hlineto
          -4 -15 -2 -15 -14 vvcurveto
          -110 -81 callsubr
        </CharString>
        <CharString name="dvKx_MA">
          709 77 98 callsubr
          919 -62 callsubr
          -313 210 rmoveto
          313 -97 -260 -57 callsubr
          791 226 rmoveto
          -1246 -113 285 -314 hlineto
          -104 callgsubr
          27 16 5 11 10 hvcurveto
          -94 170 295 vlineto
          19 8 5 15 223 callsubr
        </CharString>
        <CharString name="dvKx_PHA">
          702 77 98 callsubr
          687 129 callgsubr
          700 87 rmoveto
          113 -1239 -113 285 -314 vlineto
          -104 callgsubr
          27 16 5 11 10 hvcurveto
          -94 170 305 -86 callsubr
          61 -124 hlineto
          -98 callgsubr
        </CharString>
        <CharString name="dvKx_PHxA">
          702 89 98 callsubr
          508 98 callsubr
          167 129 callgsubr
          700 87 rmoveto
          113 -1239 -113 285 -314 vlineto
          -104 callgsubr
          27 16 5 11 10 hvcurveto
          -94 170 305 -86 callsubr
          61 -124 hlineto
          -98 callgsubr
        </CharString>
        <CharString name="dvKx_R">
          75 226 -179 -31 callsubr
          386 579 rmoveto
          113 -632 180 callsubr
          -294 vlineto
          -34 callgsubr
          305 -86 callsubr
          154 113 -124 hlineto
          211 callsubr
          vlineto
          endchar
        </CharString>
        <CharString name="dvKx_RA">
          203 226 -179 -31 callsubr
          494 579 rmoveto
          113 -740 180 callsubr
          -294 vlineto
          -34 callgsubr
          335 -86 callsubr
          29 270 callsubr
          -19 hvcurveto
          -114 -65 callgsubr
          140 36 callsubr
          -61 -26 callgsubr
        </CharString>
        <CharString name="dvKx_TA">
          479 77 98 callsubr
          676 442 rmoveto
          -265 hlineto
          211 callsubr
          318 239 callsubr
          -1003 -113 285 -314 hlineto
          -104 callgsubr
          27 16 5 11 10 hvcurveto
          -94 170 305 -86 callsubr
          52 -222 hlineto
          5 callgsubr
          176 269 callgsubr
          -329 152 callsubr
        </CharString>
        <CharString name="dvL">
          1 558 642 rmoveto
          -578 -113 578 hlineto
          -233 -57 rmoveto
          -99 callgsubr
          67 113 -116 hlineto
          -73 callgsubr
          endchar
        </CharString>
        <CharString name="dvLA">
          300 callgsubr
          -57 -96 hlineto
          -106 callgsubr
          47 42 callgsubr
          hlineto
          endchar
        </CharString>
        <CharString name="dvLL">
          291 callsubr
          -770 -113 770 hlineto
          -191 -57 rmoveto
          -115 hlineto
          128 callgsubr
          -39 -137 rmoveto
          -120 vlineto
          104 callsubr
          -29 hlineto
          -19 -4 9 15 hvcurveto
          120 -1 callsubr
          29 146 callsubr
          -235 hmoveto
          -120 vlineto
          -15 -4 -9 -19 -76 callgsubr
          120 -86 callsubr
          29 hlineto
          19 4 -9 -15 hvcurveto
          endchar
        </CharString>
        <CharString name="dvLLA">
          52 callsubr
          -30 4 25 -17 47 hhcurveto
          115 hlineto
          86 45 -18 callgsubr
          140 vlineto
          79 -33 37 -63 9 vhcurveto
          59 vlineto
          endchar
        </CharString>
        <CharString name="dvLL_R">
          233 445 335 rmoveto
          15 4 9 19 vhcurveto
          29 146 callsubr
          -120 vlineto
          104 callsubr
          -29 hlineto
          -19 -4 9 15 hvcurveto
          -160 hmoveto
          -15 -4 -9 -19 -76 callgsubr
          120 -86 callsubr
          29 hlineto
          19 4 -9 -15 hvcurveto
          405 10 rmoveto
          93 -45 34 -86 vhcurveto
          -115 hlineto
          -47 -25 -17 -30 -4 hvcurveto
          204 callgsubr
          3 -20 12 -15 22 -7 -97 -152 rcurveline
          284 callsubr
          56 12 29 36 75 vvcurveto
          -710 437 rmoveto
          -113 770 113 vlineto
          endchar
        </CharString>
        <CharString name="dvLL_RA">
          52 callsubr
          3 -20 12 -15 22 -7 -97 -152 rcurveline
          284 callsubr
          56 12 29 36 75 vvcurveto
          140 vlineto
          79 -33 37 -63 9 vhcurveto
          59 vlineto
          endchar
        </CharString>
        <CharString name="dvLL_YA">
          851 51 callgsubr
          159 137 rmoveto
          128 callgsubr
          579 -247 30 callgsubr
          -1388 -113 894 192 callgsubr
          -187 hlineto
          -89 callgsubr
        </CharString>
        <CharString name="dvL_BA">
          589 709 246 callsubr
          -1126 -113 896 155 callsubr
          -392 hlineto
          -106 callgsubr
          48 -154 hlineto
          55 callgsubr
        </CharString>
        <CharString name="dvL_BHA">
          739 508 642 rmoveto
          -528 -113 528 hlineto
          270 -314 48 callgsubr
          -336 vlineto
          19 callgsubr
          -206 vlineto
          -87 callgsubr
          135 callsubr
          170 -86 callsubr
          29 hlineto
          19 4 -9 -15 hvcurveto
          -135 170 135 -1 callsubr
          49 -122 hlineto
          110 callsubr
        </CharString>
        <CharString name="dvL_DA">
          490 1007 642 rmoveto
          -1027 -113 797 -57 -335 hlineto
          -106 callgsubr
          48 -154 hlineto
          -16 callsubr
        </CharString>
        <CharString name="dvL_DDA">
          478 912 274 callgsubr
          -1015 -113 762 -57 -300 vlineto
          -106 callgsubr
          48 -49 hlineto
          -87 callgsubr
          127 callgsubr
          endchar
        </CharString>
        <CharString name="dvL_DDHA">
          516 944 359 250 callsubr
          -1053 -113 794 -57 -332 vlineto
          -106 callgsubr
          45 -232 hlineto
          -71 callgsubr
          125 -99 callsubr
          -23 callgsubr
          endchar
        </CharString>
        <CharString name="dvL_D_RA">
          490 1007 642 rmoveto
          -1027 -113 797 -57 -335 hlineto
          -106 callgsubr
          48 -154 hlineto
          65 callsubr
        </CharString>
        <CharString name="dvL_GA">
          742 736 191 -66 callsubr
          505 451 rmoveto
          -1279 -113 799 -57 -337 hlineto
          -106 callgsubr
          50 -2 hlineto
          -152 -102 callgsubr
          324 132 callsubr
        </CharString>
        <CharString name="dvL_HA">
          491 1008 642 rmoveto
          -1028 -113 798 -57 -336 hlineto
          -106 callgsubr
          49 -41 hlineto
          99 callsubr
          hlineto
          endchar
        </CharString>
        <CharString name="dvL_JA">
          729 1246 642 rmoveto
          -1266 -113 1036 264 callsubr
          -266 vlineto
          -106 callgsubr
          47 -154 68 callgsubr
        </CharString>
        <CharString name="dvL_JxA">
          732 691 -117 -31 callsubr
          558 630 rmoveto
          -1269 -113 1039 264 callsubr
          -269 vlineto
          -106 callgsubr
          50 -154 68 callgsubr
        </CharString>
        <CharString name="dvL_KA">
          726 1243 245 callsubr
          -1263 -113 808 16 callsubr
          -305 hlineto
          -106 callgsubr
          52 -154 hlineto
          -98 callgsubr
        </CharString>
        <CharString name="dvL_KHA">
          932 1449 642 rmoveto
          -1469 -113 747 hlineto
          -25 callgsubr
          -266 hlineto
          -106 callgsubr
          47 -244 117 callsubr
          294 -314 hlineto
          -104 callgsubr
          27 16 5 11 10 hvcurveto
          -94 -88 callgsubr
          endchar
        </CharString>
        <CharString name="dvL_K_YA">
          1124 1411 -78 callsubr
          -230 -117 rmoveto
          -15 -71 callsubr
          -147 -57 callsubr
          153 189 157 callsubr
          -1661 -113 808 17 callgsubr
          -305 hlineto
          -106 callgsubr
          52 -154 hlineto
          121 callgsubr
          255 -86 callsubr
          52 -74 hlineto
          -89 callgsubr
        </CharString>
        <CharString name="dvL_LA">
          741 1258 642 rmoveto
          -1278 -113 1048 -57 78 callsubr
          -373 hlineto
          -106 callgsubr
          52 54 callgsubr
        </CharString>
        <CharString name="dvL_L_YA">
          1124 1411 -61 callsubr
          104 -66 callgsubr
          49 0 callsubr
          2 callsubr
          -1661 -113 1167 hlineto
          -62 callgsubr
          -43 -79 callgsubr
          -226 hlineto
          -73 callgsubr
          -373 40 callsubr
          hlineto
          -5 0 -4 -5 vvcurveto
          264 callgsubr
          135 callsubr
          162 114 callgsubr
          -114 hlineto
          -89 callgsubr
        </CharString>
        <CharString name="dvL_MA">
          742 1029 432 201 callgsubr
          -1279 -113 801 -97 -339 40 callsubr
          -114 hlineto
          -103 callsubr
          114 78 -319 -88 callgsubr
          endchar
        </CharString>
        <CharString name="dvL_PA">
          497 784 247 callgsubr
          -1034 -113 559 -57 -97 hlineto
          -106 callgsubr
          48 -154 hlineto
          121 callgsubr
          529 60 vlineto
          endchar
        </CharString>
        <CharString name="dvL_PHA">
          722 784 -14 callsubr
          269 callsubr
          -1259 -113 559 -57 -97 vlineto
          -106 callgsubr
          48 -154 hlineto
          -98 callgsubr
        </CharString>
        <CharString name="dvL_R">
          1 578 252 rmoveto
          -350 -332 rlineto
          160 hlineto
          190 183 rlineto
          -20 539 rmoveto
          -578 -113 578 hlineto
          -233 -57 rmoveto
          -99 callgsubr
          67 113 -116 hlineto
          -73 callgsubr
          endchar
        </CharString>
        <CharString name="dvL_RA">
          300 callgsubr
          242 callsubr
          -238 vlineto
          -87 callgsubr
          73 113 -20 -91 callgsubr
          202 -86 callsubr
          29 hlineto
          19 4 -9 -15 hvcurveto
          -147 170 147 -1 callsubr
          47 -127 hlineto
          -310 -312 rlineto
          160 hlineto
          150 152 rlineto
          -72 -94 callsubr
        </CharString>
        <CharString name="dvL_SA">
          711 998 363 rmoveto
          -70 hlineto
          -74 callsubr
          70 hlineto
          2 callsubr
          -1248 -113 750 12 callsubr
          -269 hlineto
          -106 callgsubr
          50 -252 -93 callgsubr
          287 -250 -94 callsubr
        </CharString>
        <CharString name="dvL_TA">
          494 1011 642 rmoveto
          -1031 -113 801 -57 -339 hlineto
          -106 callgsubr
          47 -252 hlineto
          -19 callsubr
        </CharString>
        <CharString name="dvL_THA">
          643 501 642 rmoveto
          -521 -113 521 hlineto
          659 113 rmoveto
          -231 hlineto
          1 -113 rlineto
          -304 vlineto
          38 callgsubr
          181 hlineto
          23 16 6 10 10 hvcurveto
          -94 -88 callgsubr
          endchar
        </CharString>
        <CharString name="dvL_TH_YA">
          1021 501 642 rmoveto
          -521 -113 521 hlineto
          807 -304 30 callgsubr
          307 callsubr
          114 192 callgsubr
          -167 hlineto
          38 callgsubr
          211 hlineto
          32 17 11 18 8 hvcurveto
          -20 27 40 -9 56 -29 callgsubr
        </CharString>
        <CharString name="dvL_TTA">
          492 1009 642 rmoveto
          -1029 -113 799 -57 -337 hlineto
          -106 callgsubr
          50 -232 hlineto
          -63 callgsubr
        </CharString>
        <CharString name="dvL_TTHA">
          492 779 137 43 callgsubr
          -1029 -113 680 -57 -218 vlineto
          -106 callgsubr
          50 -14 hlineto
          -218 -102 callgsubr
          163 callsubr
        </CharString>
        <CharString name="dvL_VA">
          536 1018 642 rmoveto
          -1038 -113 808 -37 callgsubr
          -305 hlineto
          -106 callgsubr
          52 -154 hlineto
          121 callgsubr
          529 60 vlineto
          endchar
        </CharString>
        <CharString name="dvL_V_DDA">
          727 1161 274 callgsubr
          -1264 -113 1011 -57 -63 211 callgsubr
          -43 vlineto
          -87 callgsubr
          63 -74 callgsubr
          -72 -79 callgsubr
          -22 133 callgsubr
          59 -170 -4 vlineto
          -92 callsubr
          161 158 callsubr
          -299 hlineto
          -106 callgsubr
          46 -191 hlineto
          -93 45 -5 callgsubr
          61 hlineto
          32 17 8 15 9 hvcurveto
          -44 13 38 -20 84 hhcurveto
          122 -84 callgsubr
          104 vlineto
          73 -31 34 -109 vhcurveto
          -63 -91 callgsubr
          11 -82 callsubr
          endchar
        </CharString>
        <CharString name="dvL_YA">
          634 921 -61 callsubr
          104 -66 callgsubr
          49 0 callsubr
          2 callsubr
          -1171 -113 677 hlineto
          -62 callgsubr
          -43 -79 callgsubr
          -226 40 callsubr
          -114 hlineto
          -89 callgsubr
        </CharString>
        <CharString name="dvM">
          -21 268 215 rmoveto
          -80 callsubr
          308 210 rmoveto
          113 -606 222 callgsubr
          -97 121 callsubr
          -120 -48 callsubr
          138 113 -138 97 vlineto
          endchar
        </CharString>
        <CharString name="dvMA">
          229 516 432 201 callgsubr
          -766 -113 288 -21 callsubr
          78 -319 -88 callgsubr
          endchar
        </CharString>
        <CharString name="dvM_BA">
          562 735 369 rmoveto
          72 103 -155 195 callsubr
          411 138 callgsubr
          -94 14 rmoveto
          -49 callsubr
          -414 hmoveto
          -80 callsubr
          811 323 rmoveto
          -1109 222 callgsubr
          -21 callsubr
          74 -114 vlineto
          55 callgsubr
        </CharString>
        <CharString name="dvM_BHA">
          693 275 callgsubr
          84 323 callsubr
          244 callsubr
          84 vlineto
          15 8 5 15 vhcurveto
          45 hlineto
          960 323 rmoveto
          -230 -210 -78 98 -73 callsubr
          -82 -312 97 47 113 -497 -113 280 -97 -80 211 callgsubr
          -120 193 callsubr
          114 74 141 callgsubr
        </CharString>
        <CharString name="dvM_BH_RA">
          693 732 290 -100 callsubr
          24 323 callsubr
          -119 -100 callsubr
          99 -82 callsubr
          45 hlineto
          960 308 rmoveto
          -230 -195 -78 83 -73 callsubr
          -67 -312 82 47 113 -497 -113 280 -82 -80 211 callgsubr
          -135 193 callsubr
          129 74 -54 188 callsubr
        </CharString>
        <CharString name="dvM_BH_VA">
          938 732 215 189 callsubr
          -482 182 callsubr
          1201 327 rmoveto
          -505 -113 275 45 callsubr
          -70 -38 -14 -30 -18 hvcurveto
          -88 67 callsubr
          45 -5 callgsubr
          61 hlineto
          27 16 5 11 10 hvcurveto
          -94 -88 callgsubr
          endchar
        </CharString>
        <CharString name="dvM_BH_YA">
          1067 1354 -61 callsubr
          100 -66 callgsubr
          53 0 callsubr
          -622 -314 189 callsubr
          -482 182 callsubr
          1334 327 rmoveto
          307 callsubr
          114 hlineto
          26 8 -8 -26 303 callsubr
          -199 67 callsubr
          51 -34 110 vhcurveto
          238 callgsubr
          -94 -88 callgsubr
          endchar
        </CharString>
        <CharString name="dvM_B_RA">
          562 735 369 rmoveto
          72 103 -155 195 callsubr
          411 138 callgsubr
          -71 -127 194 callgsubr
          50 -60 rcurveline
          -2 -1 -3 -1 -4 hhcurveto
          -518 24 rmoveto
          -80 callsubr
          811 323 rmoveto
          -1109 222 callgsubr
          -21 callsubr
          74 -114 234 callgsubr
        </CharString>
        <CharString name="dvM_B_YA">
          940 1227 204 callsubr
          -230 -117 rmoveto
          -15 -71 callsubr
          -125 -118 hlineto
          -19 6 -33 220 callgsubr
          -41 51 rlineto
          72 103 -155 195 callsubr
          525 hlineto
          -62 callgsubr
          -315 -163 rmoveto
          -49 callsubr
          -414 hmoveto
          -80 callsubr
          1189 323 rmoveto
          -1487 222 callgsubr
          -21 callsubr
          74 -114 vlineto
          -93 45 -5 callgsubr
          170 hlineto
          36 23 10 18 13 279 callgsubr
          59 -29 callgsubr
        </CharString>
        <CharString name="dvM_DA">
          474 761 472 rmoveto
          -98 hlineto
          -67 -38 -13 -27 -19 hvcurveto
          -91 97 313 hlineto
          -483 -72 callsubr
          713 323 rmoveto
          -1011 222 callgsubr
          -21 callsubr
          75 -114 1 callsubr
        </CharString>
</ttFont>
